<?xml version="1.0" encoding="utf-8"?>
<!-- Generator: Adobe Illustrator 24.0.0, SVG Export Plug-In . SVG Version: 6.00 Build 0)  -->
<svg version="1.1" xmlns="http://www.w3.org/2000/svg" xmlns:xlink="http://www.w3.org/1999/xlink" x="0px" y="0px"
	 viewBox="0 0 3000 2200" style="enable-background:new 0 0 3000 2200;" xml:space="preserve">
<style type="text/css">
	.st0{fill:#1A1A1A;}
	.st1{display:none;}
	.st2{display:inline;}
	.st3{fill:#000;}
	.st4{fill:#AF8752;}
</style>
<g id="BG">
	<rect class="st0" width="3000" height="2200"/>
</g>
<g id="Stock" class="st1">
	<g id="EWcAC0.tif" class="st2">
		<g>
			<path class="st3" d="M1267.02,424.6c6.4,0,12.79,0.13,19.19-0.04c6.27-0.16,10.77-3.72,11.82-8.97
				c1.09-5.45-1.39-10.62-7.22-12.93c-4.95-1.96-10.23-3.55-15.5-4.17c-22.61-2.66-45.24-5.22-67.92-7.18
				c-14.5-1.26-28.31,1.58-41.58,8.24c-13.93,6.99-28.5,12.71-42.81,18.96c-9.15,3.99-18.18,8.31-27.53,11.77
				c-6.42,2.38-13.2,4.08-19.97,5.17c-19.25,3.12-38.27,1.3-57-3.9c-1.97-0.55-3.89-1.42-5.89-1.71
				c-11.4-1.62-18.65-8.94-24.75-17.85c-1.01-1.47-1.94-3.04-2.62-4.67c-4.29-10.27,1.6-19.84,12.67-19.79
				c5.27,0.03,10.67,1.26,15.78,2.74c11.36,3.28,22.86,5.7,34.64,6.38c17.49,1.01,34-3.4,49.98-10.05
				c18.9-7.87,37.83-15.66,56.58-23.85c19.58-8.55,40-9.87,60.94-8.47c18.42,1.24,36.48,4.95,54.74,7.2
				c18.26,2.25,36.7,3.17,55.09,4.18c17.89,0.98,35.82,1.12,53.71,2.08c7.12,0.38,14.21,1.79,21.26,3.03
				c29.52,5.2,59.01,10.77,86.15,24.19c12.89,6.37,26.42,10.95,39.57,16.51c14.31,6.05,27.69,14.33,41.4,21.77
				c14.31,7.76,26.41,18.39,38.07,29.62c9.04,8.7,18.24,17.23,27.52,25.66c3.4,3.08,7.07,5.95,10.94,8.41
				c10.36,6.6,20.74,13.19,31.4,19.3c11.12,6.37,23.27,9.51,36.12,8.34c4.75-0.43,9.69-1.64,13.97-3.68
				c10.13-4.83,12.85-17.47,5.47-25.93c-3.08-3.53-7.37-6.45-11.68-8.37c-21.63-9.64-42.1-20.99-59.46-37.42
				c-3.51-3.33-7.27-6.54-11.34-9.12c-29.88-18.95-55.8-42.32-78.8-69.15c-6.13-7.15-12.77-14.19-20.32-19.72
				c-16.93-12.38-36.17-18.77-57.38-18.91c-10.47-0.07-20.94-1.17-31.4-1.09c-10.74,0.07-21.47,1.07-32.2,1.53
				c-3.32,0.14-6.67,0.08-9.97-0.24c-9.75-0.92-15.98-6.59-16.73-14.98c-0.79-8.85,4.24-16.54,13.52-18.86
				c8.41-2.1,17.07-3.32,25.68-4.51c24.39-3.35,48.63-1.5,72.39,4.23c29.29,7.07,54.83,21.25,74.6,44.43
				c15.7,18.41,34.4,32.78,55.7,43.97c6.35,3.33,12.71,6.64,18.98,10.11c16.38,9.09,34.6,12.35,52.49,16.66
				c2.73,0.66,5.51,1.17,8.17,2.03c11.79,3.79,23.92,5.43,36.24,6.16c4.32,0.26,8.59,1.21,12.91,1.65c5.7,0.58,8.71-1.57,11.53-7.92
				c2.11-4.75,1.49-9.39-2.58-12.46c-4.88-3.7-10.05-7.1-15.42-10.05c-18.89-10.41-38.88-18.26-59.18-25.45
				c-14.94-5.29-29.81-10.85-44.43-16.97c-6.3-2.64-12.01-6.8-17.76-10.62c-2.73-1.81-5.2-4.21-7.27-6.77
				c-4.13-5.13-4.4-12.07-1.12-17.25c3.51-5.55,10-8.09,16.78-6.18c2.93,0.83,5.72,2.23,8.44,3.63c5.91,3.06,11.5,6.87,17.63,9.33
				c12.81,5.13,25.85,9.7,38.86,14.29c16.4,5.79,32.82,11.59,49.36,16.98c7.5,2.44,15.26,4.3,23.03,5.63
				c2.97,0.51,6.65-0.57,9.42-2.04c4.64-2.48,5.65-7.11,3.4-11.91c-2.03-4.33-5.35-7.44-9.47-9.77
				c-8.02-4.53-16.05-9.06-24.05-13.63c-4.69-2.68-9.22-5.59-12.18-10.32c-6.3-10.08-0.56-22.36,11.19-23.53
				c2.68-0.27,5.7,0.27,8.21,1.3c28.4,11.75,54.78,26.78,76.03,49.45c22.1,23.57,40.08,50.12,51.68,80.26
				c10.19,26.48,18.46,53.71,27.06,80.77c2.3,7.24,2.73,15.07,3.94,22.64c1.56,9.81,1.78,19.72,3.94,29.57
				c2.89,13.25-0.72,26-9.45,36.74c-6.31,7.76-14.88,10.52-24.66,9.78c-2.8-0.21-5.61-0.59-8.37-1.11
				c-9.29-1.77-18.31-1.25-27.09,2.56c-2.56,1.11-5.41,1.52-8.1,2.36c-2.18,0.69-4.42,1.34-6.44,2.38
				c-3.46,1.79-5.38,4.88-5.31,8.73c0.08,4.13,2,7.58,6.07,8.96c4.1,1.38,8.34,2.54,12.61,3.18c20.63,3.07,40.76,1.43,60.44-5.99
				c8.57-3.23,17.17-6.83,26.54-7.3c17.87-0.91,35.32,0.92,51.6,8.95c4.31,2.13,8.47,4.84,12.13,7.97
				c5.83,4.98,11.27,10.44,16.68,15.89c2.14,2.15,3.93,4.7,5.6,7.25c4.9,7.48,9.37,15.27,14.56,22.54
				c8.69,12.17,13.46,25.82,15.94,40.33c3.32,19.45,1.65,38.66-2.47,57.92c-3.68,17.24-6.95,34.68-8.63,52.21
				c-1.6,16.62,0.41,33.35,7.04,48.94c2.24,5.26,5.91,10.31,10.04,14.3c9.32,8.99,17.05,19.1,23.5,30.21
				c7.54,13,7.43,26.37,0.56,39.59c-1.48,2.85-3.7,5.8-6.35,7.47c-9.31,5.86-18.8,11.45-29.46,14.71
				c-4.04,1.23-7.93,1.53-12.05,0.36c-10.95-3.11-22.21-3.9-33.47-3.06c-4.98,0.37-10.16,1.7-14.67,3.83
				c-7.29,3.45-9.77,10.4-7.47,18.13c1.93,6.48,6.04,11.19,12.05,14.25c11.28,5.74,23.24,8.41,35.7,5.85
				c13.68-2.82,23.42,2.32,30.96,13.2c1.46,2.1,2.86,4.26,4.05,6.52c6.43,12.29,8.57,24.67,0.29,37.06
				c-3.25,4.85-6.46,9.77-10.19,14.25c-3.99,4.79-5.27,8.91-3.04,13.21c2.21,4.26,6.36,6.05,12.52,5.32
				c5.98-0.71,11.29-3.24,16.34-6.34c3.92-2.41,7.9-4.79,11.59-7.52c16.38-12.13,33.21-10.29,49.71-0.93
				c14.34,8.13,23,20.7,25.72,37.23c1.68,10.2,2.72,20.3-0.65,30.36c-2.58,7.69-6.88,14.29-12.88,19.72
				c-5.1,4.62-11.13,7.18-18.05,7.57c-11.86,0.66-22.89-1.51-32.63-8.83c-5.93-4.45-12.14-8.54-18.18-12.86
				c-10.92-7.81-22.98-11.52-36.46-12.53c-18.54-1.39-35.46,3.56-52.13,10.5c-4.87,2.03-8.52,5.49-11.52,9.82
				c-3.64,5.26-7.53,10.33-11.36,15.46c-5.85,7.83-13.79,10.2-23.11,8.57c-2.76-0.48-5.51-1.25-8.13-2.23
				c-11.22-4.17-22.68-4.22-33.99-1.17c-11.41,3.08-22.39,7.36-31.05,16.04c-1.79,1.79-4.03,3.16-6.14,4.59
				c-5.58,3.78-11.57,4.33-17.43,1.08c-5.58-3.1-11.05-6.5-16.18-10.3c-12.93-9.58-27.68-14.17-43.29-16.57
				c-6.21-0.95-12.34-0.37-17.95,2.63c-9.29,4.97-17.84,10.71-23.95,19.8c-3.21,4.78-7.69,8.91-12.28,12.47
				c-2.61,2.03-6.54,3.09-9.93,3.22c-10.18,0.38-18.9-2.92-25.85-10.96c-7.44-8.61-16.59-14.94-27.35-19.2
				c-5.61-2.22-10.95-5.69-15.66-9.52c-16.07-13.11-34.33-17.66-54.61-15.14c-15.11,1.88-29.84,5.02-42.37,14.44
				c-8.26,6.21-15.14,13.45-19.58,23.18c-3.26,7.15-7.74,13.9-12.53,20.17c-9.52,12.48-26.52,15.69-40.69,8.86
				c-9.46-4.56-16.64-10.82-19.74-21.18c-0.65-2.18-2.14-4.12-2.8-6.3c-1.03-3.4-2.59-6.97-2.36-10.36
				c1.19-17.27,7.37-31.8,23.75-40.26c8.22-4.25,16.64-7.86,25.75-9.81c3.72-0.8,7.29-2.32,10.94-3.48c4.3-1.37,7.1-4.1,7.52-8.71
				c0.41-4.54-1.81-7.73-5.46-10.28c-3.73-2.61-7.58-5.2-10.81-8.38c-15.26-15.05-3.34-33.77,11.7-38.49
				c4.69-1.47,9.4-1.64,14.31-0.08c8.77,2.8,17.71,5.09,26.56,7.62c7.74,2.21,15.22,1.52,22.38-2.13c1.81-0.92,3.59-2.01,5.14-3.31
				c10.01-8.39,9.32-19.8-1.79-26.65c-8.37-5.16-17.54-8.45-27.29-9.75c-7.35-0.98-14.78-1.3-22.14-2.22
				c-38.9-4.84-69.67-23.75-93.61-54.4c-4.73-6.05-9.5-12.07-14.34-18.02c-3.28-4.03-5.42-8.51-7.02-13.49
				c-7.03-21.91-6.49-44.39-5.97-66.96c0.32-13.82,4.19-26.64,8.67-39.54c4.69-13.51,8.83-27.27,12.23-41.16
				c5.05-20.59,0.64-39.74-11.75-56.77c-6.83-9.4-11.88-19.71-17.22-29.89c-5.31-10.13-5.62-21.08-4.91-32.22
				c0.59-9.3,4.2-16.88,9.91-24.33c10.97-14.31,24.67-25.09,39.61-34.72c10.87-7,23.14-9.34,35.45-11.79
				c10.45-2.08,20.67-2.03,31.1,0.99c12.26,3.56,24.75,6.45,37.29,8.85c6.44,1.23,13.2,1.05,19.81,0.96
				c2.68-0.04,5.46-1.29,7.99-2.43c3.83-1.72,5.84-4.93,5.8-9.17c-0.04-3.98-2.2-6.88-5.62-8.51c-2.73-1.31-5.74-2.15-8.71-2.83
				c-3.23-0.74-6.55-1.3-9.86-1.51c-7.57-0.48-14.55-2.83-21.21-6.22c-18.88-9.62-39.12-13.35-60.08-13.91
				c-13.63-0.36-26.16,4.32-38.68,8.87c-18.29,6.64-34.21,17.09-48.97,29.68c-5.78,4.93-12.62,8.68-19.24,12.52
				c-6.19,3.59-12.88,6.31-19.07,9.9c-16.33,9.48-34.12,15.17-52.1,20.24c-24.4,6.89-49.08,12.53-74.29,15.72
				c-7.85,0.99-15.62,2.76-23.36,4.46c-2.42,0.53-4.91,1.66-6.89,3.15c-3.93,2.97-5.92,7.15-4.94,12.13
				c0.94,4.77,4.44,7.6,8.87,8.68c11.96,2.92,24.08,4.87,36.46,3.58c10.18-1.06,20.35-2.23,30.5-3.55
				c12.03-1.56,23.29-5.37,34.25-10.72c8.22-4.01,17.09-6.85,25.88-9.5c11.85-3.56,22.3,0.22,31.3,8.04
				c8.04,6.99,7.59,20.37-0.86,28.02c-2.81,2.54-6.12,4.77-9.58,6.29c-19.48,8.54-39.26,16.34-60.47,19.43
				c-16.45,2.39-32.99,4.17-49.46,6.44c-3.19,0.44-6.64,1.28-9.27,3c-5,3.27-5.71,9.54-1.87,14.09c3.48,4.12,7.43,7.46,13.16,8.65
				c7.34,1.53,14.64,2.36,22.1,1.79c6.38-0.48,12.75-1.09,19.13-1.6c11.65-0.94,22.69-3.99,32.87-9.77
				c10.9-6.19,22.52-8.18,34.82-6.5c6.59,0.9,13.18,1.81,19.69,3.13c8.51,1.72,14.84,6.69,19.05,14.25
				c2.49,4.47,2.41,7.02-1.11,10.37c-6.8,6.46-14.44,11.55-24.31,11.73c-7.17,0.12-14.34,0.27-21.51,0.04
				c-9.56-0.31-18.89,0.73-28.02,3.63c-2.18,0.69-4.55,1.63-6.71,1.39c-9.6-1.09-18.78,1.5-28.13,2.65
				c-5.23,0.64-9.99,2.17-13.36,6.6c-6.41,8.4-2.39,19.44,8.02,21.25c3.72,0.65,7.64,0.16,11.47,0.11
				c18.72-0.23,37.2-2.99,55.68-5.62c7.12-1.01,13.73,0.07,20.08,3.33c8.01,4.11,12.69,10.52,12.29,19.6
				c-0.27,6.08-1.21,12.25-2.8,18.12c-5.2,19.23-4.65,38.44-1.03,57.79c2.44,13.06,4.66,26.17,6.9,39.27
				c0.25,1.48,0.06,3.07-0.09,4.59c-0.49,4.9-2.42,8.74-7.31,10.8c-5.02,2.11-8.94-0.09-12.81-2.74c-0.83-0.57-1.4-1.49-2.14-2.19
				c-8.2-7.86-19.99-5.74-24.52,4.69c-1.39,3.19-1.83,6.89-2.14,10.41c-0.29,3.29,0.12,6.65,0.32,9.97
				c0.72,12.44-2.89,23.66-8.92,34.42c-7.05,12.57-18.18,18.38-31.85,19.89c-10.14,1.12-19.79-0.78-28.71-6.22
				c-12.71-7.75-26.53-10.49-41.3-8.06c-2.27,0.37-4.57,0.52-6.86,0.76c-5.62,0.59-10.81,1.83-15.76,5.13
				c-8.07,5.37-16.56,10.18-25.2,14.59c-14.85,7.57-30.26,9.02-45.99,2.55c-10.73-4.41-18.27-12.04-22.69-22.75
				c-1.66-4.02-3.25-8.07-4.8-12.14c-1.15-3.02-3.31-4.16-6.47-4.41c-7.23-0.59-12.91,2.78-18.2,6.92c-3,2.35-5.71,5.17-8.18,8.09
				c-9.23,10.92-20.83,18.91-32.87,26.21c-15.54,9.42-31.35,18.4-47.14,27.41c-7.33,4.18-14.78,8.19-22.36,11.91
				c-21.64,10.63-42.61,22.53-62.4,36.19c-16.23,11.2-30.63,24.79-41.42,41.72c-2.89,4.53-6.06,8.88-9.26,13.21
				c-1.36,1.83-2.93,3.61-4.71,5.01c-9.37,7.36-21.97,3.17-24.77-8.4c-0.76-3.13-0.62-6.64-0.15-9.87
				c0.88-6.07,2.48-12.03,3.46-18.08c2.2-13.5,8.96-24.47,18.87-33.48c11.57-10.53,23.98-19.85,38.13-26.94
				c20.59-10.31,40.92-21.17,61.13-32.2c16.38-8.94,32.42-18.52,48.64-27.77c11.08-6.32,20.04-15.14,28.14-24.74
				c12.06-14.3,23.29-29.31,32.63-45.52c3.78-6.56,6.06-14.09,8.38-21.38c8.33-26.16,19.68-51.11,30.41-76.3
				c1.29-3.03,3.34-5.74,5.08-8.57c2.01-3.27,4.3-6.39,6.05-9.8c2.25-4.38,1.53-8.53-1.46-11.28c-3.15-2.9-7.95-3.26-11.96,0.06
				c-4.3,3.57-8.68,7.41-11.82,11.96c-10.17,14.73-20.74,29.22-28.74,45.37c-6.09,12.28-14.81,22.75-24.86,31.98
				c-3.72,3.42-8.05,6.52-12.64,8.56c-11.26,5-21.82,11.16-32.55,17.14c-11.59,6.46-24.12,11.21-36.05,17.07
				c-7.09,3.48-14.08,7.29-20.65,11.66c-8.3,5.52-16.44,11.39-24.08,17.79c-6.63,5.56-12.47,12.06-18.66,18.15
				c-1.64,1.61-3.12,3.43-4.95,4.77c-5.01,3.68-10.53,4.15-15.85,1c-5.44-3.22-7.65-8.71-6.11-14.55
				c1.47-5.59,3.95-11.12,7.02-16.04c10.15-16.29,23.63-29.44,39.32-40.5c12.06-8.5,25.37-14.36,38.88-19.9
				c19.89-8.15,37.75-19.59,53.51-34.06c6.15-5.64,11.05-12.71,16.12-19.43c10.15-13.43,15.54-29.33,22.68-44.33
				c8.48-17.79,17.29-35.42,26.08-53.06c3.31-6.64,7.09-13.05,10.39-19.7c1.22-2.46,2.15-5.25,2.43-7.96
				c0.56-5.28-1.28-8.35-5.22-10.06c-4.64-2.01-7.86-1.52-11.44,3.14c-7.79,10.15-15.54,20.36-22.61,31.02
				c-6.85,10.33-14.68,19.65-23.72,28.07c-4.49,4.18-8.44,8.93-12.93,13.11c-5.6,5.22-11,10.9-17.38,14.98
				c-12.07,7.7-24.9,13.97-38.39,19.15c-17.9,6.88-35.55,14.56-52.74,23.06c-14.74,7.29-27.47,17.96-38.97,29.64
				c-9.85,10-18.48,21.2-27.64,31.88c-2.83,3.3-5.34,6.93-8.5,9.87c-5.56,5.17-12.16,5.73-17.56,2.06
				c-5.38-3.65-7.4-10.11-4.82-17.07c5.84-15.75,13.93-30.23,25.37-42.64c21.97-23.83,47.73-42.47,77.19-55.97
				c14.19-6.5,28.5-12.73,42.71-19.18c12.19-5.53,23.29-12.44,32.92-22.11c12.53-12.58,23.71-25.95,33.62-40.76
				c8.64-12.91,19.01-24.78,29.5-36.31c17.57-19.32,36.03-37.83,53.74-57.02c9.02-9.78,20.01-16.72,31.02-23.69
				c8.86-5.61,18.09-10.65,27.12-15.99c1.97-1.17,4.08-2.29,5.65-3.89c2.46-2.51,3.57-5.66,2.05-9.15
				c-1.45-3.33-4.05-5.58-7.69-5.37c-3.52,0.2-7.12,0.86-10.45,2.01c-22.02,7.66-41.59,19.59-59.59,34.3
				c-6.41,5.23-11.96,11.13-16.85,17.77c-19.92,27.01-45.09,47.07-76.49,59.62c-13.83,5.53-27.88,8.35-42.5,9.11
				c-8.38,0.44-12.99-2.31-15.05-7.96c-2.21-6.05,0.06-12.76,6.69-17.26c4.19-2.84,9-4.82,13.61-7
				c29.63-14.05,57.21-30.8,78.02-57.02c6.66-8.39,13.88-16.45,21.59-23.89c20.81-20.1,41.86-39.96,63.13-59.58
				c11.29-10.41,23.46-19.76,36.35-28.24c8.74-5.75,16.74-12.58,26.06-17.55c4.45-2.37,5.61-5.87,4.29-9.55
				c-1.41-3.94-5-5.92-10.04-4.86c-18.38,3.84-35.06,10.57-47.7,25.58c-16.57,19.69-37.92,32.48-61.98,41.17
				c-9.37,3.38-18.33,7.87-27.5,11.8c-3.76,1.61-7.49,3.39-11.4,4.49c-5.91,1.66-11.32-0.58-14-5.21
				c-2.9-5.01-1.98-10.96,2.64-15.39c1.83-1.75,3.96-3.27,6.17-4.53c13.78-7.86,27.26-16.39,41.54-23.21
				c16.66-7.96,29.83-19.42,41.1-33.77c7.1-9.04,15.11-17.37,22.87-25.87c5.52-6.05,11.37-11.8,16.94-17.81
				c8.08-8.71,17.21-16.18,27.57-21.88c12.54-6.9,25.29-13.46,38.19-19.67c12.48-6.01,25.79-8.16,39.64-6.71
				c2.03,0.21,4.09,0.2,6.14,0.29C1267.02,424.78,1267.02,424.69,1267.02,424.6z M1744.23,765.11c-0.76-8.9-0.46-18.05-2.46-26.66
				c-5.93-25.52-19.01-44.91-46.47-51.52c-12.74-3.07-24.85-2.52-36.67,2.85c-7.61,3.46-15.46,5.12-23.78,5.25
				c-18.48,0.3-35.94-3.89-52.99-10.83c-10.64-4.33-21.56-8.06-32.58-11.33c-16.16-4.79-31.36-1.79-45.62,6.99
				c-7.48,4.61-12.95,10.91-15.87,19.1c-5.16,14.44-5.37,28.69,3.76,41.83c6.57,9.45,13.25,18.86,20.42,27.84
				c12.66,15.86,15.41,34.29,14.39,53.6c-0.74,14.15-4.74,27.7-9.59,40.99c-5.43,14.9-11.19,29.69-13.69,45.5
				c-3.75,23.78-1.46,46.52,11.47,67.33c2.91,4.68,6.65,9.27,11.02,12.55c17.02,12.76,36.57,16.59,57.4,14.16
				c4.21-0.49,8.52-1.93,12.3-3.87c11.39-5.82,22.54-12.1,33.78-18.2c11.93-6.48,23.86-12.94,37.46-15.39
				c18.42-3.32,36.74-1.44,54.97,1.34c9.73,1.48,18.88,1.18,27.23-4.59c10.73-7.42,17.95-17.31,21.3-30.01
				c5.32-20.12,4.26-40.26-1.1-60c-4.62-17.01-10.6-33.67-16.28-50.38C1746.43,803.33,1742.58,784.65,1744.23,765.11z
				 M2022.74,779.35c-1-11.97-1.97-23.93-3.01-35.9c-1.48-17.03-6.08-33.16-14.07-48.3c-7.36-13.94-18.55-23.34-33.99-26.36
				c-9.7-1.9-19.77-2.49-29.68-2.58c-20.71-0.18-41.43,0.37-62.14,0.62c-8.42,0.1-16.88-0.3-25.25,0.43
				c-18.09,1.59-31.37,10.58-38.21,27.68c-9.94,24.83-10.3,49.25,3.81,72.98c7.09,11.92,14.82,23.27,24.27,33.48
				c7.52,8.13,13.73,17.22,16.95,28.01c3.43,11.48,2.29,22.88-1.67,33.93c-4.04,11.31-8.79,22.37-13.06,33.61
				c-4.7,12.36-2.96,23.53,6.45,33.26c5.09,5.27,11.23,8.85,17.79,11.82c20.96,9.51,43.37,11.88,65.92,11.93
				c26.95,0.06,52.48-7.9,77.59-16.83c14.61-5.19,20.13-14.9,16.81-30.03c-2.12-9.68-5.74-19.05-9.03-28.43
				c-4-11.42-7.52-22.91-6.47-35.2c0.54-6.37,1.31-12.73,2.34-19.04C2020.53,809.54,2022.56,794.6,2022.74,779.35z M1943.42,1033.37
				c0.18-21.85-10.06-33.85-27.77-34.88c-5.61-0.33-11.72,1.34-17.02,3.52c-7.52,3.1-14.46,7.59-21.72,11.37
				c-5.66,2.95-11.27,6.06-17.15,8.51c-13.23,5.53-26.67,5.38-39.37-1.21c-12.11-6.29-24.79-10.94-37.67-15.1
				c-5.27-1.71-11.01-3.42-16.41-3.06c-20.76,1.37-37.13,10.66-47.39,29.25c-3.79,6.86-5.47,14.3-3.92,22.22
				c2.34,11.96,9.91,19.37,20.88,23.56c11.97,4.57,24.29,7.86,37.05,9.57c8.86,1.18,17.72,2.58,26.44,4.54
				c11.83,2.66,21.96,8.29,28.81,18.8c1.11,1.71,2.58,3.18,3.81,4.82c5.05,6.78,11.96,11.21,19.46,14.57
				c19.05,8.54,48.09-1.16,53.07-30.54c1.35-7.98,4.65-14.49,10.26-20.07c4.72-4.69,9.65-9.2,14.05-14.16
				C1937.75,1054.99,1943.01,1043.28,1943.42,1033.37z M1137.56,968.22c-1.19,18.31,4.83,34.41,14.37,49.41
				c7.52,11.81,21.28,16.49,34.18,12.15c11.25-3.79,16.24-15.41,10.73-25.94c-1.86-3.55-4.59-6.8-7.48-9.62
				c-8.69-8.48-14.27-18.59-17.04-30.34c-1.17-4.98-2.16-10.01-3.6-14.9c-1.73-5.88-3.48-11.79-5.89-17.41
				c-2.71-6.31-6.65-7.5-13.11-5.25c-5.18,1.81-7.96,5.49-8.61,10.71C1139.81,947.42,1138.73,957.83,1137.56,968.22z
				 M1709.42,623.31c-4.12,0.96-7.85,1.73-11.53,2.7c-5.41,1.44-10.8,3-16.17,4.59c-1.95,0.58-3.99,1.12-5.71,2.14
				c-8.35,4.99-9.62,15.33-2.53,23.05c6.78,7.38,15.32,9.94,25.11,7.18c6.39-1.8,12.79-3.63,19.01-5.91
				c3.04-1.11,6.13-2.83,8.43-5.06c8.55-8.3,6-21.21-5.01-25.59C1717.29,624.93,1713.21,624.3,1709.42,623.31z M1524.61,537.26
				c-5.32,1.27-10.12,2.06-14.64,3.63c-2.23,0.78-4.43,2.67-5.81,4.64c-2.91,4.17-1.59,7.86,3.04,9.85c0.93,0.4,1.95,0.6,2.92,0.94
				c19.28,6.72,38.99,12.24,57.62,20.78c3.23,1.48,6.69,2.61,10.16,3.35c4.25,0.9,8.36-0.94,9.92-4.14
				c1.75-3.58,0.98-6.99-1.42-10.04c-1.1-1.4-2.27-2.78-3.58-3.99c-7.81-7.25-16.73-12.53-27.08-15.37
				c-4.18-1.15-8.21-2.81-12.35-4.09C1537.09,540.89,1530.74,539.07,1524.61,537.26z M1403.55,478.82
				c11.1,0.55,21.09-3.55,30.95-7.72c4.96-2.1,5.32-6.64,1.46-10.55c-4.36-4.42-9.97-6.4-15.91-6.66
				c-20.05-0.87-39.7,1.41-58.6,8.58c-1.41,0.54-2.75,1.35-4.02,2.2c-2.7,1.8-4.8,4.1-3.85,7.62c0.86,3.15,3.58,4.29,6.52,4.41
				c7.36,0.31,14.72,0.4,22.08,0.59c2.8,0.07,5.6,0.09,8.39,0.3C1394.91,477.93,1399.23,478.41,1403.55,478.82z M1464.95,945.86
				c-0.99,12.47,3.38,22.75,13.3,30.18c2.5,1.88,5.93,3.01,9.08,3.42c4.65,0.62,7.15-1.51,8.36-6.07
				c1.39-5.24,0.53-10.44-2.38-14.76c-5.67-8.4-7.59-17.69-8.47-27.52c-0.36-4-1.59-8.04-3.14-11.77c-1.53-3.7-4.56-6.32-8.95-6.07
				c-4.57,0.26-7.5,2.88-9,7.17c-1.73,4.95-2.12,9.94-0.84,15.09C1463.76,938.94,1464.28,942.42,1464.95,945.86z M1212.73,817.92
				c6.93-0.93,14.6-3.55,21.28-8.62c5.77-4.38,8-10.23,6.38-16.03c-1.64-5.87-7.43-10.49-14.32-10.96
				c-10.35-0.7-19.14,3.19-26.22,10.47c-4.35,4.47-6.09,10.02-3.32,16.24C1199.06,814.72,1204.53,818.03,1212.73,817.92z
				 M1494.37,558.72c-0.05-9.45-7.1-16.31-17.08-17.2c-9.44-0.84-17.58,2.59-24.62,8.55c-6.17,5.23-7.39,12.85-3.66,19.32
				c3.29,5.72,10.92,8.51,18.1,5.99c7.2-2.53,14.22-5.59,21.27-8.55C1492.24,565.19,1494.31,562.16,1494.37,558.72z M2037.29,670.62
				c0.16-6.8-1.91-12.9-7.55-16.81c-7.77-5.39-15.91-10.27-24.03-15.13c-4.3-2.58-9.15-3.24-14.11-2.3
				c-4.28,0.8-7.29,3.76-7.79,7.44c-0.44,3.25,1.68,6.39,5.27,8.6c3.88,2.38,7.59,5.03,11.34,7.62c3.16,2.18,6.06,4.8,9.43,6.57
				c5.28,2.79,10.16,5.78,13.52,10.98c1.87,2.89,4.7,4.87,8.51,3.73c4.12-1.24,5.14-4.61,5.41-8.39
				C2037.34,672.16,2037.29,671.38,2037.29,670.62z M1808.19,611.21c-9.92,0.35-17.4,4.81-23.25,12.16
				c-3.59,4.5-4.58,9.77-2.05,15.13c2.58,5.45,7.37,7.51,13.19,7.49c9.02-0.03,17.06-3.08,24.16-8.45c1.96-1.48,3.6-3.69,4.73-5.9
				c3.55-6.93,1.22-14.09-5.86-17.37C1815.73,612.71,1811.85,612.2,1808.19,611.21z M1855.34,555.48c8.58-0.42,15.8-1.75,21.02-7.93
				c4.8-5.67,4.66-12.42-0.64-17.07c-4.62-4.07-9.94-7.19-16.08-8.49c-9.62-2.05-19.42,3.87-22.13,13.27
				c-2.54,8.81,1.65,16.54,10.52,19.05C1850.71,555.06,1853.55,555.21,1855.34,555.48z M1313.54,462.27
				c-11.03,0.77-19.54,4.8-24.96,14.5c-2.82,5.06-3.58,10.12-0.01,15.09c3.67,5.11,8.82,6.6,14.83,5.4
				c11.24-2.26,19.26-8.96,24.9-18.63c2.72-4.66,1.46-9.86-3.39-12.5C1321.45,464.24,1317.35,463.52,1313.54,462.27z
				 M1700.07,1154.6c10.22-0.07,17.11-9.27,13.64-18.95c-1.7-4.73-4.56-9.09-7.21-13.44c-3.26-5.35-8.09-7.32-14.38-6.31
				c-6.4,1.03-10.84,4.26-13.07,10.31C1674,1139.89,1685,1154.7,1700.07,1154.6z M1240.18,594.94c-8.43,0.93-18.05,2.17-26.47,7.57
				c-5.13,3.29-7.34,8.2-6.25,12.88c1.13,4.84,5.03,8.29,11.48,8.25c6.03-0.03,12.11-1.18,18.05-2.42
				c3.92-0.82,7.92-2.17,11.37-4.17c5.61-3.25,7.6-9.1,5.74-14.38C1252.27,597.47,1247.94,594.82,1240.18,594.94z M1831.69,877.39
				c-0.75-3.93-1.08-8.05-2.36-11.86c-2.05-6.09-6.61-9.29-11.88-9.21c-5.19,0.08-9.51,3.37-11.35,9.78
				c-1.77,6.12-3.17,12.41-3.93,18.73c-0.95,7.83,3.61,14.31,10.28,15.9c6.91,1.64,14.04-2.57,16.6-10.36
				C1830.38,886.28,1830.8,881.9,1831.69,877.39z M1335.02,965.23c-0.12-8.78-6.79-13.3-15.26-9.83
				c-8.67,3.55-15.6,9.54-21.02,17.18c-3.05,4.29-3.67,8.96-1.12,13.67c2.64,4.88,7.2,6.11,12.36,5.84
				C1321.97,991.45,1335.18,977.26,1335.02,965.23z M1172.09,729.25c3.98-0.68,7.57-0.95,10.95-1.94c6.09-1.8,9.89-6.17,11.52-12.21
				c2.73-10.13-5.54-18.5-15.64-16.03c-3.21,0.78-6.53,1.21-9.64,2.26c-3.57,1.21-7.42,2.34-10.35,4.56
				c-8.3,6.28-6.6,17.49,3.14,21.3C1165.3,728.45,1168.96,728.64,1172.09,729.25z M1255.27,863.21c6.64-0.59,12.28-2.78,16.62-7.55
				c5.15-5.65,4.21-14.06-1.95-17.13c-3.85-1.92-8.02-3.38-12.19-4.48c-5.48-1.44-10.69-0.18-15.23,3.24
				c-8.34,6.29-7.49,18.11,1.85,22.74C1247.71,861.69,1251.63,862.19,1255.27,863.21z M2125.49,1129.8
				c0.35,8.42,4.72,15.05,12.45,17.89c4.82,1.77,9.68,1.55,13.79-1.79c4.05-3.29,5.94-7.83,4.85-12.98c-1.67-7.86-6.1-14.1-13-18.17
				c-6.22-3.68-13.1-1.22-15.76,5.46C2126.61,1123.23,2126.24,1126.59,2125.49,1129.8z M2044.69,1107.46
				c-3.67,0.96-7.56,1.45-10.97,3c-5.52,2.51-8.67,7.1-8.58,13.37c0.09,5.83,4.24,10.79,10.4,12.83c5.44,1.8,10.63,0.78,15.59-1.62
				c6.53-3.17,9.92-10.49,8.2-17.27C2057.64,1111.11,2052.92,1107.94,2044.69,1107.46z M1781.27,1164.95
				c5.08-0.48,9.27-1.27,11.07-5.64c1.72-4.21-0.91-7.36-3.69-10.14c-5.19-5.19-11.24-8.8-18.63-9.91
				c-3.28-0.49-6.53-1.16-9.78-1.83c-2.82-0.58-5.69-1.15-7.81,1.44c-2.25,2.75-1.55,5.81-0.21,8.68c0.86,1.83,1.86,3.75,3.26,5.16
				C1762.82,1160.06,1772.09,1163.35,1781.27,1164.95z M1503.5,1197.16c0.43,7.94,5.08,14.9,13.05,19.63
				c3.82,2.27,8.55,1.57,11.42-1.2c3-2.89,4.08-6.44,2.75-10.49c-0.55-1.68-1.43-3.26-2.13-4.9c-1.09-2.56-2.32-5.08-3.18-7.72
				c-2.13-6.54-6.38-9.67-12.35-8.86C1507.27,1184.41,1503.65,1188.96,1503.5,1197.16z M1294.57,605.47
				c3.51-1.31,7.26-2.19,10.47-4.02c4.76-2.7,6.44-7.58,5.1-12.42c-1.17-4.2-5.23-7.71-10.26-7.67c-3.69,0.03-7.62,0.76-10.99,2.23
				c-5.37,2.34-8.1,8.29-6.92,13.14C1283.21,601.86,1287.71,604.78,1294.57,605.47z M1809.16,573.89
				c7.04-0.06,17.26-8.4,18.58-15.16c0.64-3.3-0.55-6.26-3.57-7.75c-5.56-2.74-11.11-1.76-16.11,1.25
				c-4.81,2.89-7.99,7.19-7.76,13.22C1800.51,570.83,1803.83,573.93,1809.16,573.89z M2058.01,929.62c1.06,3.08,1.79,6.32,3.25,9.18
				c1.79,3.5,5.21,4.76,9.02,4.48c6.09-0.44,11.18-6.53,11.32-13.31c0.15-6.9-4.58-12.87-10.81-13.66
				C2063.62,915.41,2058.55,920.86,2058.01,929.62z M1286.49,956.58c6.5-0.05,14.9-5.65,17.79-11.73c1.46-3.06,1.45-5.9-0.69-8.61
				c-2.15-2.72-5.12-3.51-8.26-2.67c-6.34,1.7-11.69,5.08-15.6,10.47c-1.92,2.65-2.59,5.57-0.99,8.64
				C1280.36,955.8,1283.23,956.6,1286.49,956.58z M1182.81,821.16c0.08-5.85-5.1-10.65-11.66-10.8c-6.61-0.15-11.8,4.38-11.94,10.43
				c-0.15,6.24,4.6,11.03,11.13,11.24C1177.09,832.25,1182.72,827.34,1182.81,821.16z M1256.52,491.96
				c6.45,0.06,11.83-4.68,11.86-10.46c0.03-5.62-4.95-9.98-11.31-9.9c-6.11,0.08-10.99,4.68-11.01,10.38
				C1246.05,487.32,1250.85,491.9,1256.52,491.96z"/>
			<path class="st3" d="M1359.57,1413.84c0,3.07,0.01,6.14,0,9.22c-0.04,9.61-3.49,17.98-9.32,25.48c-1.41,1.82-2.76,3.69-4.16,5.51
				c-5.8,7.56-7.8,16.29-6.21,25.41c3.43,19.69,7.86,39.13,16.73,57.28c7.21,14.75,17.29,26.63,32.73,33.07
				c5.16,2.15,10.66,3.59,16.11,4.97c5.86,1.48,10.13,4.55,12.56,10.2c4.04,9.4,8.26,18.71,12.3,28.11
				c2.83,6.58,5.16,13.39,8.28,19.83c7.31,15.14,23.2,22.53,39.69,18.69c5.23-1.22,10.37-2.81,15.52-4.35
				c8.46-2.53,15.6-0.42,21.73,5.79c4.5,4.56,9.27,8.85,13.61,13.54c3.97,4.29,8.59,7.35,14.23,8.6c12.73,2.81,25.5,5.4,38.25,8.07
				c5.24,1.1,10.44,2.43,15.72,3.24c11.3,1.72,22.43,0.17,33.5-2.18c6.25-1.33,12.47-2.93,18.79-3.8
				c22.25-3.07,41.9,3.56,59.76,16.56c3.3,2.4,6.87,4.41,10.29,6.66c6.59,4.34,12.97,3.21,19.58-0.22
				c5.65-2.93,11.46-5.65,17.43-7.82c8.49-3.09,16.83-2.94,25.24,1.4c8.15,4.2,16.88,5.52,25.96,2.06
				c14.57-5.55,28.16-2.75,40.93,5.53c10.38,6.72,21.93,9.58,34.08,10.7c15.35,1.42,30.75,0.95,45.98-0.45
				c10.06-0.92,20.05-3.96,29.77-7.02c10.83-3.41,21.44-3.57,32.56-1.95c17,2.47,33.68,0.07,49.83-5.8
				c8.84-3.21,15.39-9.18,19.72-17.38c6.16-11.65,9.75-24.17,11.62-37.19c0.51-3.54,0.85-7.11,1.39-10.65
				c1.96-12.81,10.27-20.35,21.61-24.72c9.99-3.85,19.38,0.06,25.11,9.25c5.56,8.93,5.26,18.53,3.39,28.25
				c-1.5,7.79-4.02,15.42-4.98,23.25c-1.12,9.09-1.48,18.34-1.35,27.51c0.2,14.79-3.76,28.18-11.04,40.97
				c-3.52,6.17-6.03,12.99-8.38,19.73c-11.18,32.08-31.36,57.04-58.78,76.78c-23.96,17.25-50.38,28.17-79.33,33.18
				c-13.18,2.28-25.94,6.02-38.29,11.02c-6.84,2.77-13.28,6.53-19.87,9.91c-2.27,1.17-4.33,2.78-6.65,3.8
				c-5.32,2.36-10.49,1.24-14-2.76c-3.3-3.76-3.95-9.73-0.73-14.27c2.32-3.28,5.36-6.2,8.52-8.73c10.7-8.6,22.69-14.9,35.89-18.65
				c16.36-4.64,31.47-12.17,46.71-19.48c7.09-3.4,11.72-9.02,15.17-15.73c3.54-6.87,1.74-12.33-5.48-14.72
				c-4.72-1.57-10-2.01-15.01-1.97c-4,0.03-8.1,1.22-11.98,2.47c-11.19,3.59-22.32,7.33-33.4,11.25
				c-19.08,6.74-38.58,8.06-58.23,3.76c-12.39-2.71-22.35-9.71-29.7-20.37c-5.81-8.42-12.01-16.58-18.24-24.7
				c-3.14-4.1-7.04-7.26-12.27-8.73c-5.51-1.55-8.66,1.36-11.76,5.07c-3.15,3.78-3.73,7.5-1.16,11.95
				c2.94,5.08,5.78,10.28,7.96,15.71c6.09,15.17,3.12,28.8-8.63,40.02c-6.46,6.16-13.57,11.7-20.76,17.01
				c-6.29,4.64-13.73,6.59-21.49,7.6c-7.34,0.95-14.81,1.8-21.86,3.9c-17.42,5.18-34.84,5.01-52.41,1.54
				c-12.54-2.47-24.99-5.5-37.6-7.52c-15.99-2.56-31.26,1.02-45.11,8.9c-12.87,7.32-24.94,16.05-37.46,24.01
				c-8.42,5.35-16.68,11.1-25.57,15.53c-17.96,8.95-37.11,10.96-56.83,7.52c-2.25-0.39-4.51-1.07-6.58-2.02
				c-7.73-3.56-9.53-11.43-3.53-17.52c2.94-2.99,6.88-5.58,10.85-6.88c7.98-2.61,16.25-4.47,24.49-6.18
				c11.94-2.49,22.11-7.84,30.08-17.18c4.8-5.63,4.4-10.68-1.85-14.84c-8.43-5.61-17.47-8.16-27.61-4.38
				c-14.39,5.36-29,10.13-43.33,15.63c-25.06,9.62-51.08,12.53-77.66,11.76c-13.81-0.4-27.62-1.01-41.41-1.9
				c-3.71-0.24-7.73-1.15-10.94-2.95c-9.3-5.22-8.98-18.21,0.51-23.09c3.09-1.59,6.79-2.4,10.28-2.71
				c14.02-1.27,28.06-2.25,42.11-3.25c21.27-1.51,42.24-4.46,62.24-12.34c1.67-0.66,3.43-1.13,4.98-2c3.76-2.13,5.84-6.37,5.27-10.3
				c-0.62-4.34-3.13-7.18-8-8.11c-2.69-0.52-5.61-0.52-8.33-0.12c-22.27,3.29-44.47,7.04-66.78,10.06
				c-34.85,4.72-68.83,1.55-101.72-11.79c-16.23-6.58-31.13-15.43-46.26-24.04c-10.41-5.92-21.59-10.53-32.55-15.45
				c-15.08-6.77-30.72-7.01-46.62-3.47c-18.72,4.17-37.44,8.32-56.19,12.32c-5.99,1.28-12.02,2.44-18.24,1.15
				c-12.49-2.59-18.94-14.54-14.19-26.4c3.97-9.91,11.45-16.14,20.98-20.21c12.8-5.48,26.45-7.89,39.95-10.77
				c25.66-5.47,50.98-3.52,75.71,4.74c24.56,8.2,48.33,18.31,70.61,31.67c12.36,7.41,25.73,12.58,39.32,17.18
				c7.68,2.6,15.69,2.81,23.43,0.41c3.55-1.09,7.01-3.14,9.91-5.5c4.97-4.05,7-9.49,4.57-15.79c-1.46-3.79-2.89-7.78-5.28-10.97
				c-6.05-8.05-13.82-14.13-22.64-19.18c-21.09-12.07-44.26-20.3-64.08-34.64c-13.48-9.75-26.85-19.67-39.81-30.09
				c-12.62-10.15-27.12-16.34-42.07-21.75c-9.15-3.31-18.53-5.83-28.33-6.6c-15-1.18-29.44,0.41-43.74,5.68
				c-12.42,4.58-25,9.2-38.45,10.27c-13.63,1.09-27.08,0.54-40.21-3.74c-13.09-4.26-22.41-13.1-29.55-24.43
				c-3.08-4.88-5.39-10.39-1.28-15.74c4.36-5.69,10.39-4.43,16.2-2.65c2.93,0.9,5.84,1.94,8.63,3.21
				c14.19,6.46,29.23,8.23,44.29,5.65c10.72-1.84,21.35-5.39,31.42-9.6c18.18-7.6,36.62-11.89,56.08-6.99
				c22.5,5.67,43.74,0.87,64.48-7.13c17.24-6.65,27.76-20.7,35.24-36.8c3.77-8.11,4.38-17.22,2.96-26.36
				c-1.59-10.21-4.3-19.99-8.76-29.31c-1.99-4.16-3.62-8.48-5.64-12.62c-9.48-19.39-11.33-39.69-7.17-60.66
				c3.44-17.34,0.87-33.35-8.49-48.64c-4.34-7.09-7.38-15.24-9.57-23.31c-3.11-11.46-0.28-22.42,6.47-32.11
				c6.97-10.02,16.92-13.66,28.82-12.14c9.42,1.2,17.73,4.85,24.37,11.83c2.12,2.22,4.4,4.37,6.11,6.89
				c10.03,14.71,24.4,22.87,40.98,28.07c10.76,3.37,21.17,7.64,30.58,14.08c14.95,10.24,22.83,24.51,24.53,42.35
				c0.41,4.33,0.44,8.69,0.65,13.03C1359.87,1413.83,1359.72,1413.83,1359.57,1413.84z M1261.08,1624.18
				c1.33,4.82,3.35,12.44,5.54,20.01c1.94,6.71,6.43,11.65,12.06,15.35c7.71,5.07,16.13,6.37,24.74,2.39
				c8.53-3.94,11.09-12.34,6.57-20.46c-0.49-0.89-1.05-1.77-1.69-2.55c-4.17-5.04-6.09-11.04-8.09-17.15
				c-1.8-5.53-4.27-10.96-7.26-15.95c-4.46-7.46-13.16-9.26-20.64-4.94C1264.48,1605.39,1260.97,1612.3,1261.08,1624.18z
				 M1345.92,1664.92c-6.42-0.3-10.73,1.71-12.2,5.36c-1.81,4.5-0.6,8.54,2.54,12.03c1.36,1.51,2.86,2.95,4.49,4.15
				c2.47,1.8,5.1,3.39,7.69,5.02c5.82,3.67,11.61,7.38,17.49,10.93c1.93,1.16,4.05,2.26,6.22,2.73c6.48,1.4,13.01,2.66,19.57,3.63
				c6.22,0.93,10.61-3.68,8.82-9.71c-0.87-2.92-3.19-5.81-5.61-7.78c-2.92-2.37-6.55-3.94-10.03-5.49
				c-5.4-2.4-10.32-5.29-14.79-9.31C1362.94,1670.03,1354.09,1666.69,1345.92,1664.92z M2053.04,1756.11
				c0.07-0.22,0.14-0.43,0.2-0.65c0.77,0,1.53,0.04,2.3-0.01c12.53-0.72,28.72-17.33,29.06-29.92c0.12-4.4-1.8-8-5.55-10.3
				c-3.71-2.28-7.29-1.2-10.77,0.99c-2.99,1.89-6.11,3.59-9.25,5.22c-6.11,3.18-12.34,6.14-18.41,9.39
				c-4.36,2.33-6.92,6.03-6.79,11.15c0.12,4.82,2.62,8.34,6.94,10.15C2044.72,1753.79,2048.94,1754.81,2053.04,1756.11z
				 M1279.47,1548.76c-0.2,15.54,9.23,27.31,22.32,29.03c5.45,0.72,10.17-0.85,13.59-5.24c3.47-4.46,3.98-9.7,1.23-14.41
				c-3.71-6.36-7.83-12.61-12.59-18.21c-4.18-4.91-10.39-7-16.67-5.07c-6.69,2.06-7.63,8.25-7.88,14.37
				C1279.46,1549.47,1279.47,1549.73,1279.47,1548.76z M1714.37,1830.2c6.53,0.28,13.36-4.55,14.64-12.14
				c1.22-7.19-3.63-13.63-12.41-15.69c-7.67-1.8-15.44-3.23-23.23-4.46c-4.91-0.78-9.15,1.08-11.73,5.43
				c-2.42,4.07-2.14,8.52,0.54,12.29c2.02,2.84,4.65,5.43,7.49,7.47C1696.28,1827.84,1704.01,1829.47,1714.37,1830.2z
				 M1258.97,1418.61c-1.08,10.71,9.39,17.06,18.27,14.5c11.75-3.4,17.28-15.69,11.47-26.65c-4.7-8.87-14.93-10.84-22.48-4.17
				C1261.38,1406.57,1259.02,1412.12,1258.97,1418.61z M1535.43,1742.46c-0.15-0.83-0.42-1.82-0.5-2.83
				c-0.65-9.01-18.08-17.11-24.68-15.29c-4.24,1.17-6.45,4.14-5.97,8.45c0.83,7.52,10.53,17.86,17.96,19.15
				C1529.13,1753.14,1535.46,1748.68,1535.43,1742.46z M1266.39,1450.7c-10.1,0.18-13.79,3.03-13.49,10.4
				c0.27,6.61,5.98,11.54,12.99,11.24c6.36-0.27,12.32-6.43,12.12-12.5C1277.82,1453.83,1273.66,1450.56,1266.39,1450.7z
				 M1587.87,1773.93c-3.8-0.07-6.63,0.75-8.22,3.86c-1.44,2.81-0.65,6.17,2.09,8.98c3.67,3.77,8.29,5.81,13.36,6.76
				c1.68,0.32,3.58,0.23,5.24-0.22c4.46-1.21,6.11-4.96,3.7-8.81C1600.2,1778.38,1594.59,1774.76,1587.87,1773.93z M1331.72,1692.93
				c-0.15-4.16-3.23-7.13-7-9.46c-3.86-2.38-8.08-3.2-12.3-1.02c-2.7,1.39-3.85,3.88-3.63,6.99c0.21,2.92,1.89,4.58,4.46,5.55
				c3.55,1.34,7.12,2.66,10.67,3.99C1328.86,1700.83,1331.74,1698.87,1331.72,1692.93z"/>
			<path class="st3" d="M1435.28,1097.78c-1.23,16.32-1.33,32.82-3.9,48.93c-6.44,40.38-25.83,72.53-63.19,91.72
				c-14.22,7.3-29.64,12.1-45.59,12.54c-27.98,0.77-53.12-6.84-72.19-29.03c-9.6-11.16-17.6-23.18-22.48-37.22
				c-7.24-20.78-7.52-41.74-1.36-62.64c3.17-10.76,10.58-19.26,18.6-26.85c4.15-3.92,9.55-5.92,15.62-4.47
				c9.12,2.18,14.51,10.89,12.11,19.92c-0.58,2.19-1.58,4.34-2.72,6.32c-11.4,19.86-7.67,48.6,6.27,65.78
				c10.14,12.49,23.25,18.27,39.16,16.84c13.24-1.19,25.53-5.54,35.8-14.27c3.05-2.59,5.73-5.89,7.75-9.36
				c15.76-27.04,22.05-56.48,21.44-87.53c-0.1-5.08-0.79-10.2-1.71-15.22c-2.91-15.87,8.31-28.07,24.25-25.88
				c13.35,1.83,22.31,9.56,27.53,21.76C1434.57,1078.27,1435.18,1087.96,1435.28,1097.78z"/>
			<path class="st3" d="M1687.29,1306.31c-0.63,26.68-1.29,53.34-6.75,79.52c-3.18,15.26-7.46,30.31-11.74,45.31
				c-1.3,4.56-3.84,8.94-6.58,12.87c-3.13,4.48-7.9,6.6-13.48,5.23c-5.79-1.42-9.23-5.31-10.16-11.22c-0.35-2.25-0.8-4.66-0.38-6.84
				c4.13-21.47-2.26-40.91-10.65-60.23c-9.84-22.67-23.04-43.36-36.06-64.2c-7.32-11.72-14.8-23.38-19.84-36.34
				c-3.23-8.31-4.36-16.8-1.72-25.55c3.35-11.09,11.91-18.32,23.41-19.14c6.5-0.46,12.13,2.61,16.67,6.72
				c3.69,3.33,6.48,7.8,9.15,12.08c2.15,3.45,3.37,7.46,5.3,11.07c1.19,2.22,2.69,4.4,4.49,6.16c5.82,5.67,12.68,3.69,14.27-4.22
				c0.59-2.93,0.45-6.19-0.14-9.14c-2.52-12.55-5.28-25.03-11.82-36.33c-3.33-5.76-1.13-10.84,5.36-12.14
				c3.63-0.73,7.84-0.89,11.28,0.23c7.6,2.47,13.76,7.01,19.12,13.4c13.15,15.67,16.15,34.5,18.08,53.67
				C1686.42,1280.19,1686.6,1293.28,1687.29,1306.31z"/>
			<path class="st3" d="M2120.31,1265.46c1.38,37.08-6.45,72.13-23.54,105.09c-3.18,6.12-6.24,12.31-9.38,18.45
				c-0.46,0.91-0.94,1.84-1.55,2.65c-3.41,4.57-7.71,7.64-13.67,6.85c-5.16-0.69-9.78-5.5-10.39-11.89
				c-0.84-8.87-1.49-17.89-0.86-26.74c0.75-10.58,0.67-20.91-1.81-31.25c-2.38-9.94-3.7-20.19-6.81-29.89
				c-6.25-19.48-13.11-38.75-24.11-56.29c-4.33-6.9-8.17-14.31-10.9-21.96c-3.39-9.52-3.32-19.15,4.61-27.1
				c1.63-1.63,3.07-3.44,4.68-5.08c6.1-6.27,10.66-6.61,17.07-0.41c4.38,4.23,8.11,9.16,11.94,13.92c2.08,2.58,3.56,5.65,5.69,8.17
				c3.43,4.06,6.74,3.38,8.24-1.82c0.82-2.87,0.93-6.07,0.72-9.08c-0.23-3.29-1.24-6.52-1.81-9.8c-1-5.72,1.92-9.42,7.74-9.78
				c1.26-0.08,2.6-0.01,3.8,0.35c15.96,4.83,28.8,13.1,33.85,30.24c3.57,12.09,5.88,24.38,6.44,36.95
				C2120.54,1253.16,2120.31,1259.32,2120.31,1265.46z"/>
			<path class="st3" d="M1969.74,1551.09c-1.17,37.51-3.46,72.51-14.34,106.25c-2.49,7.73-5.79,15.38-9.97,22.32
				c-6,9.98-14.51,12.85-25.74,10.31c-5.75-1.3-7.38-3.05-7.06-9.03c0.16-2.97,1.23-5.94,2.19-8.81c1.81-5.39,1.33-8.39-2.11-11.05
				c-3.64-2.81-8-2.96-12.11-0.05c-1.84,1.31-3.41,3.08-4.88,4.82c-1.82,2.15-3.4,4.49-5.09,6.74c-6.48,8.6-7.72,9.06-17.32,6.48
				c-7.84-2.12-12.42-7.05-12.97-15.17c-0.31-4.53,0.1-9.23,1.03-13.69c1.75-8.4,6.21-15.66,10.96-22.68
				c3.58-5.3,7.19-10.6,10.95-15.77c18.31-25.13,30.3-53.3,40.06-82.6c5.36-16.09,9.64-32.37,11.13-49.32
				c0.24-2.78,0.8-5.64,1.84-8.21c2.67-6.6,10.04-8.01,14.95-2.84c1.7,1.8,3.04,4.18,3.85,6.54
				C1963.9,1500.64,1969.53,1526.55,1969.74,1551.09z"/>
			<path class="st3" d="M1640.29,1536.74c-0.8,6.15-1.98,13.48-2.66,20.86c-1.29,14.01-2.18,28.05-3.46,42.06
				c-1.12,12.24-2.76,24.38-7.04,36.05c-3.71,10.14-9.9,18.44-17.85,25.51c-4.35,3.87-12.44,4.35-17.25,1.19
				c-3.12-2.05-4.02-5.08-3.36-8.72c0.87-4.77,1.7-9.55,2.35-14.35c0.64-4.74-0.69-7.13-4.41-8.68c-3.21-1.34-5.82-0.71-8.76,2.75
				c-2.31,2.72-4.19,5.8-6.28,8.71c-4.89,6.79-11.11,8.47-18.72,5.02c-2.1-0.95-4.21-1.89-6.23-2.99c-6.96-3.82-9.95-10.11-8.53-18
				c1.34-7.43,4.68-14.05,8.6-20.4c8.2-13.29,16.52-26.49,24.56-39.88c9.36-15.59,18.71-31.3,23.54-49
				c3.49-12.82,5.96-25.91,8.89-38.88c0.73-3.24,1.2-6.58,2.3-9.7c2.68-7.62,8.44-8.94,13.95-3.15c2.08,2.19,3.79,4.83,5.27,7.49
				c8.61,15.5,12.63,32.32,13.96,49.87C1639.5,1526.83,1639.85,1531.17,1640.29,1536.74z"/>
			<path class="st3" d="M1746.22,1612.28c-0.26,15.76-3.51,29.09-8.09,42.24c-6.52,18.72-33.69,22.31-46.03,9.61
				c-9.47-9.75-15.8-20.7-18.89-33.66c-3.26-13.69-6.75-27.43-6.92-41.58c-0.09-7.33,0.57-14.86,2.27-21.96
				c2.41-10.05,9.36-16.38,19.74-18.07c10.47-1.71,20.91-1.22,31.15,1.88c10.68,3.23,17.51,10.48,20.71,20.92
				c1.93,6.32,3.24,12.9,4.16,19.45C1745.38,1598.7,1745.71,1606.39,1746.22,1612.28z"/>
			<path class="st3" d="M1770.16,1644.54c1.08-8.34,2.05-16.7,3.29-25.01c0.71-4.79,1.87-9.52,2.82-14.28
				c3.14-15.76,12.95-26.3,26.59-33.72c5.64-3.06,11.83-3.34,17.91-1.58c8.41,2.44,16.15,6.39,23.22,11.58
				c7.84,5.76,12.26,13.54,10.3,23.2c-2.23,10.96-5.05,21.93-8.95,32.39c-5.19,13.92-12.78,26.73-21.9,38.55
				c-4.73,6.13-10.77,11.15-18.68,10.39c-18.28-1.76-31.45-9.43-33.32-28.41c-0.43-4.32-0.48-8.68-0.7-13.02
				C1770.55,1644.6,1770.35,1644.57,1770.16,1644.54z"/>
			<path class="st3" d="M1974.28,1308.58c0.4,17-18.15,31.97-38.63,25.84c-5.04-1.51-9.21-4.31-12.8-8.11
				c-6.23-6.59-11.05-14.11-14.42-22.49c-3.43-8.54-6.73-17.14-9.78-25.82c-5.04-14.31-3.74-28.11,3.54-41.48
				c8.58-15.77,26.41-21.14,39.58-19.75c13,1.37,20.78,9.55,24.57,21.31c2.41,7.48,3.88,15.39,4.68,23.22
				C1972.42,1275.28,1973,1289.34,1974.28,1308.58z"/>
			<path class="st4" d="M1806.34,1316.12c-9.85-0.18-19.21-1.75-27.38-8.08c-9.41-7.29-14.19-16.81-13.78-28.5
				c0.75-21.35,8.26-40.47,21.28-57.24c3.34-4.31,8.19-7.78,12.98-10.56c15.54-9.01,30.36-3.64,39.89,7.79
				c8.4,10.08,11.9,21.99,9.16,35.14c-2.24,10.75-4.78,21.45-7.32,32.13c-0.65,2.72-1.7,5.37-2.76,7.97
				C1832.57,1309.12,1822.16,1316.67,1806.34,1316.12z"/>
			<path class="st3" d="M1509.93,1597.64c-0.18,1.6-0.36,4.4-0.82,7.17c-2.22,13.26-10.19,20.55-23.76,21.39
				c-16.65,1.03-29.88-5.44-37.34-20.4c-8.87-17.79-12.67-36.68-6.84-56.46c2.12-7.19,5.49-13.78,10.54-19.39
				c11.05-12.29,27.27-13.07,39.52-1.92c5.19,4.72,9.39,10.26,11.38,17.02c2.08,7.09,4.2,14.28,5.14,21.58
				C1509.03,1576.49,1509.2,1586.49,1509.93,1597.64z"/>
			<path class="st3" d="M1990.81,1650.72c0.39-11.67,2.26-22.96,6.14-33.92c2.05-5.78,3.82-11.67,6.03-17.39
				c5.29-13.7,15.88-20.28,29.15-18.38c15.12,2.16,25.02,12.03,26.58,26.4c1.12,10.34,0.02,20.52-3.22,30.3
				c-2.89,8.72-6.55,17.18-9.99,25.7c-2.56,6.35-7.18,11.15-12.33,15.45c-13.95,11.65-36.09,4.69-40.66-12.99
				C1991.24,1661.01,1991.34,1655.78,1990.81,1650.72z"/>
			<path class="st3" d="M1230.66,1860.46c-5.26-0.98-10.58-1.7-15.76-3c-5.44-1.37-10.9-2.93-16.09-5.03
				c-18.15-7.36-36.86-12.06-56.42-13.63c-13.1-1.05-25.46-5.38-37.78-9.69c-1.2-0.42-2.4-0.92-3.48-1.59
				c-4.29-2.63-6.11-6.75-4.98-11c1.18-4.4,4.61-7.83,9.52-7.36c11.76,1.12,22.76-2.86,34.14-4.13
				c22.65-2.52,44.33-0.39,64.57,11.25c6.83,3.93,14.46,6.44,21.65,9.76c6.26,2.89,12.46,5.94,18.6,9.08
				c2.03,1.04,3.96,2.39,5.66,3.91c5.74,5.17,5.46,10.66-0.79,15.38C1243.98,1858.6,1237.65,1860.3,1230.66,1860.46z"/>
			<path class="st3" d="M987.16,593.56c3.78,0.8,6.36,1.07,8.75,1.89c6.85,2.35,9.84,8.36,7.51,15.29
				c-2.24,6.66-6.12,12.48-11.34,17.07c-10.35,9.1-21.01,17.84-31.56,26.72c-7.8,6.56-15.61,13.12-23.47,19.62
				c-2.15,1.78-4.34,3.65-6.8,4.87c-5.49,2.72-11.03,2.41-15.79-1.63c-4.43-3.77-6-8.88-4.77-14.55c0.64-2.96,1.53-6.07,3.15-8.58
				c14.56-22.63,31.66-42.75,56.63-54.49C975.41,596.98,981.9,595.37,987.16,593.56z"/>
			<path class="st3" d="M934.22,763.2c-0.64,1.61-1.36,5.29-3.36,8.05c-2.48,3.44-5.56,6.92-9.17,8.95
				c-7.8,4.39-15.29,9.09-22.48,14.43c-2.87,2.13-7.01,3.28-10.66,3.49c-12.9,0.73-21.36-11.13-16.93-23.3
				c2.36-6.47,6.67-11.5,12.47-15.09c9.18-5.7,19.13-9.7,29.64-12.18c2.68-0.63,5.61-0.72,8.36-0.42
				C929.68,747.96,934.37,753.59,934.22,763.2z"/>
			<path class="st3" d="M1594.52,316.84c-6.76-0.01-11.63-1.28-15.84-4.5c-5.03-3.86-7.08-9.85-5.49-15.63
				c1.54-5.59,6.63-10.02,12.72-10.65c8.86-0.92,16.01,2.48,21.33,9.48c6.33,8.34,3.33,17.36-6.7,20.35
				C1598.13,316.6,1595.54,316.69,1594.52,316.84z"/>
			<path class="st3" d="M1627.62,918.45c-19.16-0.37-36.01-5.85-47.98-21.6c-11.66-15.35-15.97-33.03-14.04-52.08
				c1.54-15.16,6.98-29.3,12.81-43.25c0.39-0.94,0.98-1.79,1.53-2.66c1.95-3.06,4.06-6.43,8-6.48c4.54-0.06,6.63,3.97,7.85,7.43
				c1.22,3.47,1.31,7.46,1.27,11.22c-0.06,6.12-0.86,12.24-0.93,18.36c-0.21,17.88,14.89,29.39,32.67,27.65
				c18.78-1.84,32.06-21.87,31.46-37.79c-0.33-8.87-2.23-17.69-3.6-26.51c-0.67-4.29-1.92-8.48-2.55-12.77
				c-0.32-2.21-0.24-4.63,0.31-6.79c1.46-5.74,7.04-8.8,12.45-6.48c3.44,1.48,6.68,3.76,9.52,6.24
				c14.3,12.48,21.88,28.73,25.4,47.03c1.83,9.53,3.58,19.09,2.51,28.93c-1.58,14.45-7.71,26.95-16.27,38.38
				c-11.64,15.54-26.7,25.96-45.98,29.61C1637.32,917.78,1632.44,917.95,1627.62,918.45z"/>
			<path class="st3" d="M1982.72,840.58c0.49,21.67-19.95,49.86-53.47,45.96c-3.04-0.35-6.07-1-9.02-1.82
				c-22.38-6.2-34.45-24.47-35.77-43.98c-1.14-16.86,2.26-32.53,10.42-47.23c1.99-3.59,4.17-7.9,8.94-7.26
				c5.53,0.73,5.56,5.99,6.16,10.24c0.5,3.53,0.79,7.12,0.85,10.69c0.09,6.33,2.11,12.04,5.03,17.54
				c4.36,8.21,16.77,13.83,24.96,10.65c2.61-1.02,5.43-1.55,7.99-2.66c4.93-2.13,8.35-5.58,9.78-11.06c0.75-2.87,2.12-5.86,4.02-8.1
				c3.74-4.4,8.84-4.27,12.54,0.12c1.6,1.9,2.99,4.29,3.55,6.67C1980.3,827.02,1981.42,833.82,1982.72,840.58z"/>
		</g>
	</g>
</g>
<g id="Design">
	<g>
		<path class="st3" d="M1233.52,844.84c-17.37-1.62-32.27-0.11-46.93,4.28c-3.53,1.05-7.43,1.27-11.14,1.19
			c-6.24-0.14-12.38-0.24-18.48,1.52c-2.94,0.85-6.18,0.65-9.23,1.21c-3.04,0.55-6.17,1.07-8.98,2.27
			c-7.16,3.06-10.79,9.69-9.83,17.16c0.85,6.64,6.54,12.1,14.24,12.76c4.82,0.41,9.74-0.2,14.61-0.46c1.76-0.09,3.52-0.75,5.27-0.68
			c17.42,0.67,34.45-2.66,51.61-4.71c5.28-0.63,10.64-1.2,15.93-0.98c8.94,0.37,16.82,3.73,23.11,10.27
			c4.01,4.17,6.14,9.27,6.13,15.05c-0.02,16.34-4.77,31.06-15.92,43.27c-2.17,2.37-5.21,4.09-8.1,5.64
			c-5.08,2.73-10.33,5.13-15.54,7.62c-14.32,6.83-22.07,18.77-26.01,33.58c-3.21,12.08-4.43,24.42-4.15,36.92
			c0.21,9.33,0,18.62-2.22,27.78c-3.38,13.91-9.4,26.32-20.35,35.85c-4.66,4.06-9.47,8.04-14.64,11.4c-8.76,5.7-18.75,5-27.57,1.43
			c-14.51-5.88-24.45-16.53-27.21-32.79c-1.04-6.11-0.15-11.96,1.17-17.78c2.4-10.59,5.09-21.12,7.64-31.68
			c5.83-24.07-13.85-38.89-31.22-40.93c-7.31,1.66-15.03,2.36-21.86,5.19c-13.81,5.72-26.24,13.93-36.98,24.49
			c-1.26,1.24-2.46,2.64-3.94,3.55c-7.79,4.81-13.33,4.52-18.96-0.34c-3.52-3.04-6.98-6.21-10.05-9.69
			c-1.84-2.09-3.19-4.77-4.22-7.4c-1.85-4.74-3.29-9.65-4.92-14.48c-0.5-1.47-0.99-2.95-1.62-4.36c-1.96-4.42-4.58-8.77-9.86-8.76
			c-5.86,0.01-11.51,1.82-14.68,7.52c-1.06,1.9-1.95,4.07-2.21,6.2c-1.09,8.79-2.23,17.6-2.73,26.44
			c-0.47,8.17-0.34,16.39-0.11,24.57c0.21,7.63,2.38,14.86,5.57,21.78c4.83,10.48,6.4,21.52,6.55,33
			c0.25,17.94-19.82,25.84-31.78,21.75c-8.74-2.98-16.38-7.85-23.46-13.68c-5.01-4.13-6.57-9.88-7.12-15.97
			c-0.89-9.8-0.27-19.56,1.96-29.11c2.51-10.79,5.46-21.48,8.32-32.18c1.73-6.47,0.77-9.48-4.02-11.53
			c-5.44-2.33-11.09-0.82-14.04,3.97c-1.15,1.87-1.83,4.04-2.78,6.04c-10,20.97-15.15,43.5-21.41,65.69
			c-1.31,4.66-3.4,9.12-5.34,13.59c-0.78,1.81-1.95,3.51-3.19,5.05c-5.54,6.9-13.43,6.2-16.79-1.95c-1.72-4.16-2.46-9.04-2.39-13.57
			c0.24-14.01,2.2-27.88,5.53-41.48c2.53-10.32,5.41-20.6,9-30.59c4.35-12.1,9.31-23.99,14.53-35.74
			c7.75-17.44,18.95-32.57,32.58-45.88c7.98-7.79,15.76-15.71,20.18-26.18c2.5-5.92,4.83-11.92,6.93-17.99
			c3.19-9.21,6.19-18.5,9.14-27.8c1-3.16,1.76-6.42,2.3-9.69c0.28-1.68,0.15-3.57-0.34-5.21c-1.13-3.85-4.7-5.05-7.75-2.55
			c-1.68,1.38-3.11,3.19-4.28,5.04c-13.89,21.99-29.57,42.67-45.77,62.98c-2.49,3.12-5.2,6.06-7.8,9.09
			c-19.59,22.86-33.59,48.92-44.1,76.98c-1.94,5.19-3.96,10.38-6.42,15.34c-1.65,3.33-3.69,6.69-6.32,9.27
			c-5.47,5.38-12.96,4.19-16.86-2.4c-1.21-2.05-2.01-4.46-2.45-6.81c-2.23-11.78-1.41-23.48,2.1-34.88
			c5.23-17.02,12.4-33.13,21.91-48.33c8.05-12.87,16.76-25.08,27.33-35.95c0.92-0.95,1.77-2.01,2.45-3.14
			c7.03-11.65,16.16-21.67,24.74-32.14c8.14-9.94,15.86-20.33,22.68-31.2c3.81-6.06,5.45-13.49,7.97-20.33
			c0.37-1,0.36-2.21,0.29-3.3c-0.34-5.07-1.78-9.91-6.42-12.47c-4.6-2.54-9.67-1.82-13.87,1.23c-4.65,3.38-9.11,7.1-13.24,11.1
			c-8.11,7.87-16.07,15.92-23.84,24.13c-5.02,5.31-9.82,10.86-14.32,16.61c-6.43,8.21-12.67,16.58-18.68,25.1
			c-4.99,7.06-9.54,14.43-14.28,21.66c-1.94,2.96-3.61,6.17-5.91,8.82c-4.12,4.75-10.46,5.98-15.75,3.55
			c-5.47-2.51-8.55-7.78-7.42-14.19c0.8-4.54,2.32-9.01,4-13.32c6.53-16.78,14.11-33.05,24.26-48c1.62-2.39,3.2-4.84,5.12-6.97
			c8.65-9.66,15.08-20.75,21.47-31.95c10.85-19,24.35-35.75,40.89-50.4c17.4-15.42,36.78-27.82,55.84-40.83
			c9.16-6.25,17.9-13.12,26.64-19.95c5.82-4.55,10.79-9.95,13.32-17.13c3.68-10.43-2.17-20.58-12.93-22.75
			c-5.01-1.01-9.72-0.1-14.32,1.68c-6.29,2.43-11.84,6.06-16.7,10.73c-15.38,14.76-30.62,29.65-46.18,44.22
			c-8.74,8.18-17.67,16.21-27.07,23.6c-23.71,18.66-43.44,40.56-57,67.68c-1.88,3.76-3.29,7.75-5.01,11.6
			c-2.07,4.66-4.02,9.39-6.42,13.88c-3.47,6.5-6.48,13.12-7.86,20.4c-0.21,1.09-0.46,2.18-0.83,3.22c-1.52,4.31-4.59,6.72-8.19,6.53
			c-4.18-0.23-7.02-2.9-7.54-7.86c-0.48-4.62-0.74-9.31-0.5-13.93c0.41-7.75,1.28-15.48,2.01-23.21c0.14-1.54,0.36-3.1,0.8-4.58
			c3.61-12.11,6.89-24.35,11.11-36.25c2.34-6.61,5.92-12.89,9.63-18.89c4.42-7.15,9.32-14.06,14.52-20.68
			c3.68-4.68,8.11-8.79,12.38-12.98c4.75-4.67,9.68-9.15,14.53-13.71c2.27-2.13,4.38-4.45,6.84-6.33
			c15.81-12.09,29.24-26.49,41.58-42.02c6.21-7.82,12.81-15.33,19.3-22.92c9.57-11.19,17.66-23.4,24.32-36.49
			c6.13-12.05,12.03-24.24,17.49-36.6c8.2-18.59,18.67-35.62,31.22-51.67c19.1-24.45,40.96-46.1,64.4-66.2
			c7.19-6.17,15.4-11.36,23.72-15.94c14.96-8.23,30.22-15.96,45.67-23.25c6.55-3.09,13.89-4.55,20.87-6.72
			c6.13-1.9,12.25-3.85,18.41-5.63c5.95-1.73,11.92-3.45,17.95-4.87c7.98-1.89,16-3.66,24.07-5.15c9.6-1.78,19.21-3.72,28.9-4.72
			c21.61-2.23,43.2-4.92,65.07-2.76c19.88,1.96,39.82,3.38,59.76,4.45c16.53,0.89,32.56,4.11,48.38,8.67
			c8.1,2.34,16.19,4.74,24.12,7.6c7.29,2.63,14.61,5.42,21.45,9.01c15.52,8.16,31.03,16.41,46,25.51
			c8.48,5.15,16.19,11.7,23.73,18.21c12.44,10.73,24.64,21.74,36.61,32.98c10.95,10.29,23.51,18.21,36.39,25.65
			c9.79,5.65,19.64,11.37,30.02,15.78c12.19,5.17,25.18,7.03,38.49,4.5c5.08-0.96,9.92-2.5,14.07-5.69
			c9.52-7.32,10.56-19.8,2.48-28.66c-4.06-4.45-9.17-6.9-14.97-8.1c-4.56-0.95-9.08-2.21-13.69-2.76
			c-5.02-0.6-10.19-1.15-15.18-0.63c-15.1,1.57-27.55-4.05-38.16-13.91c-6.53-6.06-9.57-14.29-9.92-23.31
			c-0.22-5.64,1.75-10.47,5.94-14.27c2.13-1.93,4.46-3.64,6.7-5.45c1.9-1.53,3.96-2.89,5.66-4.61c7.05-7.16,7.32-10.26,0.88-18.14
			c-7.17-8.77-17-12.13-27.92-11.13c-22.32,2.05-44.59,4.74-66.89,7.07c-4.18,0.44-8.43,0.64-12.63,0.44
			c-2.34-0.11-4.88-0.84-6.89-2.04c-4.99-2.96-6.14-8.86-2.21-13.08c2.47-2.65,5.82-5.11,9.23-6.12
			c11.69-3.47,23.44-7.03,35.42-9.14c18.13-3.19,36.42-5.72,54.73-7.57c24.33-2.45,48.46-1.2,71.18,9.11
			c11.31,5.13,22.28,11.03,33.33,16.71c6.52,3.35,12.93,6.89,19.34,10.44c7.39,4.09,14.98,7.6,23.08,10.19
			c14.85,4.74,28.72,11.81,42.53,18.97c2.36,1.23,4.84,2.23,7.19,3.48c5.83,3.12,11.7,1.87,17.46,0.06
			c3.99-1.26,4.78-3.69,2.44-7.14c-1.34-1.97-3.07-3.92-5.07-5.16c-7.54-4.66-15.25-9.05-22.91-13.5c-4.22-2.45-8.53-4.76-12.7-7.29
			c-2.54-1.54-4.38-3.72-4.8-6.85c-0.69-5.12,2.46-9.5,7.62-9.66c2.78-0.09,5.69,0.7,8.39,1.58c21.13,6.91,41.5,15.7,61.69,24.93
			c2.42,1.11,4.91,2.07,7.39,3.03c9.39,3.65,18.22,8.24,25.53,15.31c6.38,6.17,12.93,12.2,18.98,18.68
			c7.97,8.53,13.5,18.67,17.74,29.5c7.24,18.47,12.03,37.57,14.47,57.25c0.65,5.27,0.81,10.59,1.45,15.86
			c0.34,2.83,1.12,5.62,1.88,8.38c4.61,16.78,1.46,32.18-8.9,45.91c-6.49,8.61-15.46,13.33-26.53,12.73
			c-7.52-0.41-15.01-1.38-22.5-2.2c-6.07-0.67-11.95,0.16-17.75,1.91c-5.73,1.73-11.47,3.45-17.18,5.23
			c-1.9,0.59-3.84,1.16-5.6,2.07c-4.03,2.1-6.47,5.37-6.45,10.08c0.02,4.72,2.41,8.1,6.58,9.95c3.01,1.34,6.26,2.42,9.5,2.93
			c24.4,3.89,48.62,4.42,72.3-4.29c4.37-1.61,8.92-2.71,13.31-4.27c28.49-10.12,56.37-6.94,83.76,4.06
			c5.06,2.03,9.84,5.22,14.07,8.7c7.36,6.05,14.31,12.63,21.2,19.24c2.52,2.42,4.54,5.43,6.51,8.36
			c5.57,8.27,10.56,16.96,16.57,24.9c11.02,14.56,17.2,31.1,19.79,48.8c1.69,11.56,2.13,23.49,1.44,35.15
			c-0.63,10.76-3.44,21.4-5.43,32.07c-3.13,16.76-6.39,33.5-9.58,50.25c-0.17,0.87-0.36,1.75-0.4,2.63
			c-0.7,20.55,0.71,40.79,8.88,60.03c2.74,6.44,6.8,11.95,12.06,16.54c11,9.59,19.59,21.1,27.27,33.39
			c7.02,11.23,8.14,23.29,5.06,35.86c-2.37,9.69-7.26,17.51-16.87,21.8c-9.31,4.15-18.4,8.81-27.73,12.9
			c-5.66,2.48-11.59,2.33-17.62,0.7c-14.12-3.81-28.6-3.88-43.01-2.73c-4.69,0.37-9.45,2.43-13.75,4.56
			c-6.74,3.34-9.12,9.39-8.24,16.7c0.94,7.78,4.87,13.91,11.55,17.79c13.18,7.65,27.29,11.49,42.73,9.38
			c5.02-0.69,10.14-0.91,15.21-0.97c7.06-0.08,12.87,3.14,17.84,7.86c10.03,9.53,15.67,21.48,17.94,34.9
			c0.63,3.73-0.04,8.14-1.47,11.69c-4.13,10.27-8.72,20.36-17.56,27.8c-4.23,3.56-5.35,8.87-3.44,13.25
			c2.21,5.09,6.46,7.35,11.69,7.29c7.23-0.07,14-2.31,20.23-5.94c5.76-3.35,11.63-6.57,17.02-10.45
			c17.06-12.29,35.02-11.52,53.07-3.35c23.15,10.48,35.14,29.05,36.91,54.26c0.53,7.52,0.83,15.03-1.07,22.49
			c-2.21,8.63-6.71,15.93-12.64,22.37c-8,8.7-18.17,12.53-29.86,12.22c-12.2-0.33-23.74-2.95-33.86-10.32
			c-5.74-4.18-11.9-7.8-17.53-12.11c-14.45-11.05-30.71-15.96-48.82-17.09c-21.81-1.36-41.72,4.67-61.36,12.75
			c-5.26,2.16-9.08,6.16-12.37,10.8c-4.1,5.78-8.59,11.28-12.87,16.94c-8.22,10.87-19.22,12.56-31.63,9.58
			c-1.51-0.36-2.98-0.9-4.46-1.35c-28.44-8.7-53.83-2.17-76.99,15.43c-2.65,2.01-5.21,4.16-7.95,6.04
			c-6.78,4.66-14.07,5.5-21.4,1.64c-5.48-2.88-10.88-6.06-15.88-9.7c-15.24-11.1-32.29-17.39-50.78-20.47
			c-13.51-2.25-25.34,0.66-36.29,8.97c-7.31,5.54-13.99,11.26-19.17,19.07c-3.19,4.82-8.52,8.31-13.17,12.03
			c-1.82,1.45-4.39,2.51-6.71,2.7c-12.08,0.98-23.68-0.33-32.46-9.95c-6.5-7.12-13.79-13.17-21.97-18.2c-2.26-1.39-4.51-3.11-7-3.79
			c-10.79-2.94-19.52-9.42-28.32-15.83c-10.59-7.72-22.34-12.9-35.31-14.59c-6.99-0.91-14.2-0.72-21.27-0.34
			c-12.69,0.7-25.05,3.34-37.05,7.6c-14.02,4.98-25.13,13.94-34.54,25.18c-1.69,2.01-3.12,4.38-4.1,6.82
			c-3.59,8.97-9.44,16.55-14.76,24.45c-4.25,6.3-10.12,10.5-17.24,13.01c-2.72,0.96-5.45,1.92-8.2,2.78
			c-6.62,2.07-13.14,1.71-19.51-1.03c-1.63-0.7-3.19-1.58-4.82-2.27c-11.82-5.03-20.67-12.85-24.24-25.65
			c-0.06-0.21-0.16-0.42-0.28-0.6c-7.65-11.55-6.18-23.57-1.71-35.67c4.49-12.15,12.25-21.41,24-27.3
			c10.17-5.1,20.66-9.15,31.82-11.54c4.53-0.97,9.02-2.4,13.32-4.12c9.73-3.89,10.97-14.13,2.62-20.43c-1.06-0.8-2.16-1.65-3.39-2.1
			c-6.64-2.44-10.73-7.74-14.66-13.12c-6.21-8.48-5.8-19.44,0.87-27.68c7.76-9.59,21.71-16.24,35.69-11.28
			c9.59,3.4,19.6,5.7,29.48,8.25c8.86,2.29,17.62,1.87,26.04-2.02c5.15-2.38,9.47-5.73,12.51-10.62c3.69-5.94,3.46-11.71-0.51-17.42
			c-2.62-3.77-6.29-6.19-10.26-8.27c-10.56-5.56-21.89-8.58-33.66-9.96c-8.37-0.99-16.78-1.7-25.18-2.4
			c-16.84-1.42-32.6-6.35-47.47-14.29c-5.29-2.82-10.8-5.23-16.01-8.17c-14.46-8.17-26.77-19.04-37.65-31.45
			c-8.78-10.01-17.14-20.39-25.31-30.9c-2.66-3.42-4.66-7.59-6.04-11.73c-5.49-16.54-8.18-33.57-8.23-51.03
			c-0.05-16.87-0.45-33.81,3.75-50.29c2.02-7.91,5.51-15.44,7.95-23.26c4.82-15.44,10-30.81,13.9-46.49
			c5.58-22.41,0.54-43.25-12.68-61.88c-6.69-9.44-12.26-19.49-18.37-29.24c-9.04-14.4-10.16-29.86-9-46.12
			c0.68-9.57,4.86-16.96,10.61-24.43c14.4-18.73,32.74-32.35,53.12-43.64c7.65-4.24,15.88-6.89,24.52-8.17
			c9.64-1.43,19.27-3.21,28.97-3.84c5.63-0.36,11.49,0.79,17.07,2.05c12.12,2.73,24.07,6.25,36.21,8.9
			c7.57,1.65,15.32,2.66,23.05,3.27c4.8,0.38,9.72-0.4,14.55-0.94c1.94-0.22,3.86-1.03,5.68-1.84c4.39-1.96,7.12-5.21,7.29-10.22
			c0.19-5.36-2.62-9.06-7.29-10.83c-4.52-1.71-9.39-2.51-14.12-3.63c-1.29-0.31-2.64-0.38-3.97-0.47
			c-11.72-0.77-22.38-4.71-32.96-9.68c-15.8-7.42-32.65-11.27-50.08-12.81c-11.33-1-22.63-2.04-33.82,0.54
			c-18.9,4.36-37.01,10.93-54.17,20.09c-9.65,5.15-18.54,11.38-26.81,18.48c-9.51,8.17-20.18,14.42-31.43,19.84
			c-9.79,4.72-19.32,9.98-29.1,14.74c-5.37,2.62-10.92,4.97-16.55,6.96c-31.24,11.02-63.25,19.18-95.83,25.07
			c-15.94,2.88-32,5.1-48.01,7.66c-2.85,0.46-5.74,0.87-8.47,1.75c-2.5,0.81-5.01,1.92-7.14,3.43c-4.57,3.23-6.27,7.98-5.61,13.42
			c0.64,5.24,4.15,8.51,8.92,9.69c7.93,1.96,15.97,3.79,24.08,4.7c15.35,1.71,30.56-0.9,45.76-2.75c7.49-0.91,14.94-2.1,22.4-3.24
			c7.74-1.19,15.08-3.68,22.06-7.21c11.13-5.63,22.72-10.1,34.73-13.43c6.45-1.79,12.97-2.63,19.74-1.49
			c8.22,1.39,15.33,5.18,21,10.81c8.44,8.39,9.61,22.95-3.52,33.01c-3.83,2.93-8.23,5.46-12.76,7.08
			c-16.9,6.06-33.81,12.23-51.04,17.22c-9.93,2.88-20.45,3.84-30.77,5.21c-16.27,2.17-32.61,3.89-48.89,6.02
			c-2.54,0.33-5.19,1.45-7.33,2.89c-4.94,3.33-6.56,10.07-3.2,14.68c3.93,5.4,8.75,9.67,15.76,11.42
			c15.03,3.75,30.05,1.77,45.07,0.68c6.85-0.5,13.85-0.99,20.4-2.82c8.28-2.31,16.61-5.2,24.16-9.25
			c13.61-7.3,27.83-8.59,42.66-6.72c7.48,0.94,14.98,1.99,22.32,3.65c9.83,2.22,17,8.25,21.89,17.06c2.14,3.86,1.81,7.49-1.32,10.3
			c-7.83,7.04-16.25,13.17-27.36,13.78C1243.79,844.37,1237.59,844.64,1233.52,844.84z M1659.85,788.67c0-3.11-0.04-6.21,0.01-9.32
			c0.42-25.81-8.28-47.69-27.54-65.28c-6.38-5.83-13.04-10.66-21.88-11.71c-1.3-0.15-2.58-0.65-3.83-1.1
			c-16.29-5.88-32.33-4.72-47.98,2.13c-8.72,3.82-17.78,5.53-27.17,5.71c-21.85,0.42-42.77-4.09-62.91-12.38
			c-14.38-5.92-28.81-11.68-44.22-14.37c-12.25-2.13-24.36-1.87-35.91,3.32c-5.05,2.27-10.09,4.7-14.77,7.64
			c-8.12,5.09-13.86,12.36-17.25,21.34c-3.2,8.46-3.93,17.32-3.05,26.21c0.41,4.1,1.35,8.52,3.39,12.02
			c4.69,8.01,9.99,15.68,15.43,23.22c5.71,7.91,11.93,15.45,17.84,23.22c3.93,5.17,6.59,10.97,8.54,17.18
			c4.89,15.56,5.51,31.4,3.16,47.38c-2.27,15.44-7.36,30.12-13.06,44.57c-7.01,17.8-12.92,35.87-14.79,55.04
			c-2.14,21.97,1.47,42.71,11.94,62.4c6.71,12.61,16.77,20.76,29.35,26.84c17.47,8.44,35.91,9.21,54.67,8.13
			c3.7-0.21,7.58-1.08,10.93-2.63c10.26-4.75,20.37-9.84,30.42-15.04c9.26-4.79,18.27-10.07,27.54-14.82
			c16.91-8.65,34.94-12.86,53.94-12.33c15.07,0.42,30.11,1.46,45.01,4.12c3.44,0.61,7.1,0.68,10.58,0.32
			c16.11-1.68,27.32-11.18,35.71-24.03c9.57-14.66,11.69-31.5,11.35-48.54c-0.39-19.43-4.52-38.25-11.11-56.54
			c-4.96-13.77-9.87-27.55-14.76-41.35C1662.38,830.19,1658.75,809.79,1659.85,788.67z M1982.22,771.95c0-3.55,0.24-7.12-0.04-10.64
			c-1.43-17.61-5.3-34.39-14.17-50.1c-7.18-12.71-17.3-20.34-31.09-24.04c-12.82-3.44-25.06-3.53-37.65,1.93
			c-19.57,8.49-40.27,9.93-61.38,7.49c-15.05-1.74-29.8-4.71-44.28-9.04c-8.57-2.57-17.31-3.95-26.25-3.78
			c-16.14,0.3-28,7.33-34.77,22.32c-6.71,14.86-6.25,30.18-2.87,45.61c1.28,5.82,3.18,11.56,5.32,17.13
			c5.08,13.24,10.49,26.36,15.75,39.53c2.85,7.14,3.82,14.45,2.78,22.15c-1.77,13.08-5.7,25.5-10.78,37.62
			c-1.71,4.08-3.16,8.29-4.55,12.49c-4.47,13.53-4.29,27.49-4.02,41.51c0.44,23.03,5.37,44.73,16.97,64.89
			c7.34,12.75,17.25,21.84,31.62,25.68c11.04,2.95,22.12,5.05,33.42,1.3c10.53-3.5,21.05-7.07,31.59-10.54
			c11.16-3.68,22.3-7.45,33.54-10.86c8.84-2.68,17.93-3.16,26.99-1.14c6.48,1.45,12.9,3.18,19.27,5.04
			c13.51,3.95,31.39-1.49,39.74-12.42c4.22-5.51,7.64-11.6,9.11-18.37c2.6-11.97,2.64-23.85-4.47-34.63
			c-15.57-23.62-19.93-49.11-11.8-76.21c4.57-15.26,10.32-30.17,15.75-45.17C1980.37,797.47,1983.26,785.03,1982.22,771.95z
			 M1620.59,1122.05c-0.01,14.97,3.14,26.33,9.1,37.19c3.35,6.11,7.18,11.84,12.85,15.93c16.87,12.18,35.39,20.51,56.43,21.49
			c9.52,0.44,18.35,2.55,27.02,6.21c6.13,2.58,12.49,4.6,18.7,7.01c2.46,0.96,5.04,1.96,7.1,3.54c5.98,4.58,11.94,9.23,17.49,14.3
			c6.87,6.26,14.66,10.82,23.46,13.46c3.97,1.19,8.34,2.03,12.43,1.73c13.87-1.04,26.88-5.52,39.46-11.26
			c7.92-3.62,13.17-9.72,15.55-18.07c1.7-5.96,3.44-11.97,4.4-18.07c1.24-7.89,4.24-14.88,8.84-21.27
			c4.41-6.12,8.69-12.35,13.45-18.19c3.48-4.26,7.19-8.6,11.61-11.75c8.61-6.14,15.32-13.87,19.19-23.38
			c9.16-22.53,5.49-39.93-17.8-52.71c-0.97-0.53-2-0.95-3.01-1.43c-9.43-4.5-19.14-5.27-29.13-2.12c-2.96,0.93-5.85,2.29-8.88,2.75
			c-8.08,1.2-15.15,4.81-22.3,8.39c-8.72,4.36-17.52,8.59-26.4,12.63c-9.65,4.4-19.82,4.63-30.03,2.66
			c-9.67-1.87-19.3-2.15-29.12-1.4c-7.69,0.59-15.66,1.06-23.18-0.27c-13.95-2.47-27.9-5.53-41.4-9.76
			c-12.58-3.94-24.86-3.44-37.4-1.37c-12.11,1.99-19.93,9.12-23.91,20.56C1622.17,1107.27,1620.66,1115.98,1620.59,1122.05z
			 M1599.22,673.7c1.83-0.26,4.08-0.34,6.18-0.93c8.51-2.4,17.05-4.71,25.42-7.55c7.67-2.6,12.2-7.75,13.62-16.29
			c1.35-8.07-2.02-14.35-9.38-17.62c-9.8-4.36-19.57-4.6-29.68-0.98c-5.59,2-11.45,3.22-17.2,4.76c-1.49,0.4-3.04,0.63-4.52,1.09
			c-11.46,3.56-15.75,15.72-8.84,25.48C1580.64,669.88,1589.01,673.28,1599.22,673.7z M1399.29,529.71
			c-6.17-0.04-12.04,0.78-17.52,3.61c-3.08,1.59-5.42,3.81-6.58,7.15c-1.38,3.94-0.13,6.97,3.73,8.69c1.2,0.54,2.54,0.77,3.81,1.17
			c7.61,2.4,15.23,4.75,22.81,7.25c6.11,2.01,12.04,4.63,18.25,6.23c9.08,2.35,17.72,5.6,26.14,9.7c4.14,2.02,8.67,3.37,13.16,4.48
			c2.23,0.55,4.89,0.27,7.14-0.39c5.44-1.59,8.07-7.01,5.52-12.07c-1.65-3.27-4.13-6.33-6.86-8.79
			c-9.21-8.31-20.01-13.79-31.97-17.13c-5.33-1.49-10.55-3.37-15.78-5.18C1414,531.96,1406.93,529.25,1399.29,529.71z
			 M1263.6,433.64c-0.02-0.19-0.04-0.39-0.06-0.58c-10.36,1-20.83,1.41-31.05,3.19c-8.67,1.51-17.11,4.44-25.54,7.1
			c-2.44,0.77-4.8,2.44-6.66,4.24c-4.38,4.26-3.14,9.39,2.58,11.38c1.66,0.58,3.45,1.02,5.19,1.07c7.51,0.23,14.94,1.62,22.56,0.63
			c4.99-0.65,10.3-0.55,15.24,0.4c16.74,3.23,32.15-1.31,47.26-7.49c6.84-2.8,7.35-8.67,1.58-13.48c-4.74-3.95-10.3-6.14-16.45-6.43
			C1273.37,433.46,1268.48,433.64,1263.6,433.64z M1367.16,1022.51c0.02-5.38-1.85-10.08-4.92-14.29
			c-3.88-5.32-6.19-11.23-7.15-17.69c-0.65-4.38-0.95-8.83-1.88-13.15c-0.92-4.29-1.97-8.66-3.8-12.61
			c-1.86-4.01-5.5-6.48-10.18-6.25c-4.84,0.24-8.41,2.8-10.29,7.26c-2.46,5.84-3.78,11.97-1.33,18.1c1.71,4.28,1.81,8.51,1.66,12.99
			c-0.47,14.4,5.56,25.71,17.14,34.13c3.3,2.4,7.01,3.79,11.19,3.58c4.33-0.22,7.12-2.12,8.48-6.22
			C1366.69,1026.49,1366.81,1024.46,1367.16,1022.51z M1027.61,849.89c12.16-1.15,22.06-4.52,30.57-11.49
			c1.19-0.97,2.25-2.15,3.18-3.38c5.91-7.88,3.82-17.77-4.68-22.78c-5.37-3.16-10.99-4.4-17.2-3.13
			c-7.27,1.49-14.13,3.96-19.95,8.59c-2.54,2.02-4.9,4.58-6.56,7.36c-4.68,7.85-2.15,17.28,5.86,21.75
			C1021.82,848.47,1025.37,849.13,1027.61,849.89z M1342.26,533.53c-9.92-0.07-21.21,4.27-27.83,10.58c-3.15,3-5.18,6.59-5.55,11.02
			c-0.97,11.68,9.59,21.02,21.31,17.69c9.96-2.83,19.52-7.16,29.1-11.2c4.04-1.7,5.86-5.58,5.42-9.85
			c-0.66-6.46-3.27-11.94-9.54-14.99C1350.92,534.71,1346.53,533.33,1342.26,533.53z M2008.04,682.95
			c-0.19-10.6-3.71-17.99-11.92-22.93c-4.94-2.97-9.61-6.39-14.63-9.21c-5.39-3.03-10.94-5.85-16.63-8.26
			c-4.39-1.86-9.12-1.79-13.64,0.03c-3.72,1.51-6.38,3.98-6.63,8.31c-0.25,4.28,1.9,7.15,5.45,9.14c1.15,0.64,2.5,0.94,3.65,1.59
			c2.29,1.3,4.75,2.46,6.7,4.18c6.04,5.3,12.47,9.97,19.81,13.29c3.75,1.69,6.69,4.22,9.09,7.54c1.42,1.96,2.96,3.94,4.85,5.41
			c4.74,3.69,10.13,2.28,12.49-3.27C2007.56,686.59,2007.77,684.1,2008.04,682.95z M1721.67,653.2c7.42-0.01,17.87-2.95,24.54-6.87
			c2.64-1.55,5.32-3.32,7.35-5.57c8.48-9.4,5.25-21.28-6.78-25.14c-14.11-4.53-26.21-0.61-36.33,9.66
			c-2.22,2.26-3.82,5.49-4.78,8.56c-2.43,7.75,1.68,15.38,9.4,17.97C1717.54,652.65,1720.22,652.91,1721.67,653.2z M1793,549.92
			c6.63-0.24,12.84-1.61,18.63-4.73c4.06-2.19,7.04-5.4,8.58-9.77c1.86-5.3,1.04-10.29-3.25-13.96
			c-5.78-4.94-12.35-8.72-19.95-10.16c-11.68-2.21-22.51,4.53-25.76,15.84c-2.68,9.33,2.01,18.22,11.32,20.92
			C1785.94,549.02,1789.52,549.31,1793,549.92z M1162.56,1009.96c0.18-0.02,0.36-0.04,0.54-0.07c-0.57-3.46-0.71-7.07-1.8-10.36
			c-2.5-7.55-10.52-10.52-17.2-6.16c-2.82,1.84-5.32,4.77-6.93,7.76c-4.25,7.89-6.14,16.57-6.32,25.51
			c-0.08,4.17,0.25,8.42,1.07,12.5c1.38,6.8,6.02,10.91,12.08,11.47c6.34,0.58,11.44-2.31,14.23-8.66c1.31-2.99,2.25-6.29,2.61-9.53
			C1161.66,1024.96,1162.01,1017.45,1162.56,1009.96z M1135.36,483.4c0.38-0.03,1.5,0,2.58-0.2c13.75-2.55,23.69-10.44,30.65-22.26
			c1.77-3.01,1.52-6.46-0.21-9.55c-2.09-3.73-5.63-5.89-9.61-6.51c-18.37-2.82-28.94,1.17-37.5,14.47
			c-3.26,5.07-4.26,10.26-1.37,15.65C1122.98,480.76,1128.06,483.51,1135.36,483.4z M1608.36,1234.44
			c13.05,0.02,20.83-11.2,15.63-23.23c-2.34-5.42-5.7-10.49-9.2-15.28c-1.72-2.36-4.55-4.45-7.32-5.41
			c-11.51-3.98-23.98,4.48-25.19,16.71C1580.84,1221.84,1592.9,1234.42,1608.36,1234.44z M982.88,748.21
			c3.93-0.57,7.94-0.84,11.78-1.77c7.69-1.85,12.88-6.69,15.14-14.31c3.14-10.61-5.38-20.49-16.29-18.82
			c-5.44,0.83-10.89,1.96-16.16,3.52c-3.54,1.05-7.15,2.61-10.08,4.79c-8.61,6.41-7.73,17.67,1.55,23.06
			C973.14,747.21,977.87,748.12,982.88,748.21z M1079.9,867.38c-2.8,0.56-5.7,0.84-8.39,1.73c-7.16,2.38-11.65,8.44-11.67,15.3
			c-0.02,6.78,4.57,12.44,12.15,14.81c7.24,2.27,14.42,1.97,21.44-0.92c3.97-1.64,7.36-4.14,9.75-7.74
			c3.9-5.89,2.8-14.14-3.09-16.85C1093.77,870.82,1087.4,867.25,1079.9,867.38z M2112.32,1205.57
			c-0.43,11.84,8.82,19.39,16.04,21.52c12.51,3.7,23.4-6.21,20.35-18.8c-2.07-8.54-7.35-15.19-15.02-19.51
			c-7.65-4.3-15.97-1.07-19,7.15C2113.55,1199.02,2113.09,1202.35,2112.32,1205.57z M2012.35,1214.62
			c7.24,0.11,13.57-2.08,18.31-7.73c7.59-9.04,3.5-22.54-7.91-25.36c-8.64-2.13-16.85-0.17-23.76,5.37
			c-5.06,4.06-6.84,9.66-4.83,16.1C1996.46,1210.35,2003.2,1214.64,2012.35,1214.62z M1705.49,1246.32c2.23-0.61,5.36-1.02,8.07-2.3
			c5.19-2.46,6.41-6.68,3.31-11.45c-1.65-2.54-3.99-4.68-6.24-6.77c-9.95-9.23-22.97-9.49-35.26-11.56
			c-4.32-0.73-6.78,2.56-6.5,7.19c0.29,4.92,2.81,8.87,6.38,11.97C1683.66,1240.7,1693.71,1244.43,1705.49,1246.32z
			 M1375.57,1283.25c1.04,9.23,6.29,17.6,16.01,22.6c7.27,3.74,15.83-0.57,16.72-8.31c0.35-3.03-1.04-6.39-2.11-9.43
			c-1.3-3.71-3.33-7.16-4.64-10.87c-2.46-6.97-7.79-10.69-14.56-9.78C1380.26,1268.36,1375.6,1274.12,1375.57,1283.25z
			 M1759.84,552.36c-0.16-4.77-2.34-7.85-6.27-8.81c-12.1-2.98-21.87,2.85-25.76,12.31c-1.73,4.2-1.44,8.36,1.84,11.77
			c3.23,3.35,7.24,4.07,11.64,2.59c7.23-2.42,12.83-6.96,16.86-13.35C1759.18,555.26,1759.53,553.22,1759.84,552.36z
			 M2033.11,976.75c-0.12,0.02-0.25,0.04-0.37,0.07c0.51,2.59,0.73,5.27,1.58,7.74c2.43,7.09,9.7,10.21,16.65,7.35
			c7.69-3.17,11.41-13.32,7.82-21.36c-2.77-6.2-9-9.47-15.77-8.27c-5.59,0.99-9.33,5.7-9.9,12.49
			C2033.06,975.42,2033.11,976.08,2033.11,976.75z M980.8,866.16c3.06-0.75,5.29-1,7.29-1.83c5.11-2.13,8.16-6.98,7.83-11.93
			c-0.33-4.91-4.1-9.35-9.44-10.7c-3.91-0.99-7.87-1.02-11.66,0.78c-8.28,3.93-9.66,14.6-2.32,20.08
			C975,864.43,978.37,865.15,980.8,866.16z M1083.64,476.81c0.49-0.04,1.38-0.06,2.25-0.19c6.54-0.94,11.43-6.12,11.25-11.89
			c-0.18-6.02-5.78-11.01-12.59-11.21c-0.88-0.02-1.77,0-2.65,0.11c-6.57,0.82-11.61,6.59-11.1,12.7
			C1071.3,472.21,1076.73,476.78,1083.64,476.81z"/>
		<path class="st3" d="M1386.91,1691.94c-25.51,1.29-50.41-2.7-75.19-8.24c-11.67-2.61-23.62-3.92-35.42-5.98
			c-25.85-4.51-51.26-10.67-75.95-19.67c-23.2-8.46-44.27-20.47-62.82-36.82c-20.74-18.28-31.26-41.01-29.96-68.83
			c0.6-13.02,5.64-24.66,12.63-35.31c6.21-9.44,13.26-18.33,20.25-27.23c6.13-7.8,10.49-16.22,12.87-25.96
			c4.27-17.47-0.14-33.12-9.44-47.56c-10.54-16.37-18.6-33.78-24.71-52.18c-3.09-9.31-5.41-18.71-4.8-28.68
			c0.61-10.06,7.26-21.18,18.36-24.56c8.98-2.74,17.19-7.21,24.82-12.66c16.39-11.71,33.6-10.71,51.21-3.4
			c2.65,1.1,5.13,2.64,7.59,4.15c5.66,3.49,11.37,6.92,16.86,10.66c11.45,7.82,20.82,17.47,24.68,31.21
			c4.86,17.28,9.35,34.67,13.99,52.01c2.29,8.56,4.25,17.23,6.92,25.68c4.57,14.46,13.72,26.27,23.03,37.9
			c5.27,6.58,10.73,13.01,16.38,19.27c5.16,5.72,11.72,9.18,19.09,11.63c7.34,2.45,14.44,5.71,21.42,9.09
			c6.75,3.26,12.05,8.33,15.36,15.18c3.28,6.79,6.34,13.69,9.66,20.46c10.24,20.88,26.45,34.72,49.01,40.77
			c3.6,0.96,7.46,1.24,11.21,1.26c10.4,0.05,20.8,0.31,30.63-4.43c5.5-2.65,11.52-2.82,17.59-1.23c4.4,1.15,8.48,2.72,11.64,6.04
			c3.97,4.17,7.96,8.33,11.66,12.73c8.54,10.14,17.72,19.36,31.09,22.91c5.6,1.49,11.23,2.5,17.1,1.54c2.83-0.46,5.76-0.51,8.64-0.5
			c6.98,0.02,13.75-1.18,20.12-3.94c5.38-2.33,10.4-1.83,15.33,0.89c4.08,2.25,8,4.78,12.07,7.05c13.76,7.72,28.35,7.83,43.22,4.33
			c8-1.88,13.74-7.24,18.34-13.63c4.63-6.43,10.85-9.64,18.39-10.72c6.15-0.88,12.32-1.69,18.51-2.21
			c6.98-0.58,13.74,0.44,19.94,4.02c2.5,1.44,5.02,2.84,7.5,4.32c2.48,1.48,4.89,3.08,7.38,4.53c10.71,6.23,20.77,8.97,35.67-2.57
			c6.84-5.3,14.23-8.85,22.55-10.92c5.05-1.26,9.67-0.55,14.12,1.94c1.55,0.86,3.17,1.66,4.57,2.72c10.31,7.87,22.1,8.77,34.26,6.87
			c6.76-1.06,13.38-3.03,20.02-4.79c9.45-2.51,18.94-2.1,28.35-0.25c2.66,0.52,5.26,2.32,7.45,4.07
			c15.66,12.45,33.34,14.57,52.24,10.35c2.55-0.57,5.19-1.65,7.27-3.19c7.31-5.4,14.36-11.13,21.56-16.67
			c8.4-6.46,14.33-15.04,20.45-23.49c8.84-12.23,20.9-18.05,36.03-17.8c10.11,0.17,19.75,2.55,29.37,5.33
			c7.87,2.28,15.77,4.58,23.8,6.13c4,0.77,8.44,0.44,12.48-0.36c13.03-2.6,24.81-8.32,35.59-15.96c2.61-1.85,4.89-4.6,6.44-7.42
			c4.05-7.38,7.98-14.88,11.23-22.63c1.76-4.2,2.14-9,2.95-13.57c1.97-11.15,3.93-22.31,9.27-32.48
			c4.96-9.44,11.68-17.29,21.27-22.29c11.96-6.24,24.26-3.77,33,6.53c5.17,6.1,8.69,13.1,8.57,21.16
			c-0.13,8.84-0.71,17.71-1.84,26.47c-1.71,13.29-1.85,26.47-0.04,39.75c1.28,9.44,2.09,18.9,1.05,28.51
			c-1,9.19-3.69,17.79-7.45,26.09c-5.06,11.18-11.91,21.25-19.37,30.97c-9.83,12.81-21.42,23.82-34.67,32.84
			c-7.44,5.07-15.87,8.88-24.23,12.36c-7.96,3.31-16.33,5.77-24.67,8.06c-19.4,5.32-36.21,15.53-52.41,26.99
			c-11.82,8.37-22.58,17.89-32.58,28.38c-12.39,13-27,22.96-43.53,30.1c-12.02,5.19-24.68,7.13-37.63,7.62
			c-7.1,0.27-14.22,0.12-21.32,0.42c-8.61,0.36-16.7-1.97-24.81-4.32c-0.85-0.25-1.68-0.59-2.46-1.01
			c-5.79-3.17-6.64-10.51-1.15-14.2c3.39-2.28,7.58-3.7,11.62-4.63c15.38-3.54,30.98-5.68,46.76-6.41
			c6.07-0.28,11.83-1.76,17.31-4.36c3.85-1.83,6.23-4.89,7.54-8.86c1.42-4.31,0.76-6.15-3.26-8.07c-4.94-2.36-10.27-2.62-15.63-2.4
			c-9.09,0.36-18.18,1.08-27.27,1.06c-19.91-0.06-36.65-7.27-49.99-22.41c-7.92-8.98-16.45-17.43-24.79-26.03
			c-3.94-4.06-8.74-6.72-14.27-8.16c-5.6-1.45-10.08-0.2-13.37,4.69c-0.87,1.29-1.79,2.54-2.62,3.85
			c-3.38,5.35-3.33,8.31,0.98,13.16c5.83,6.55,10.36,13.92,13.81,21.87c6,13.86,5.19,27.76-3.78,39.82
			c-11.78,15.83-24.45,31.05-39.85,43.67c-17.97,14.72-37.58,26.66-59.17,35.45c-24.86,10.12-50.6,16.56-77.26,19.19
			c-12.57,1.24-25.25,2.12-37.87,2c-11.95-0.11-23.9-1.56-35.82-2.76c-16.89-1.7-33.71-1.88-50.35,1.91
			c-5.17,1.18-10.17,3.12-15.23,4.77c-3.62,1.17-7.19,2.12-11.08,1.1c-10.86-2.87-14.36-14.99-6.37-22.89
			c5.65-5.59,12.91-8.56,20.23-11.2c12.88-4.64,26.33-6.09,39.91-6.65c1.77-0.07,3.57-0.17,5.33-0.01
			c20.39,1.76,40.28-1.75,60.15-5.55c5.67-1.08,11.33-2.18,16.94-3.52c6.02-1.44,10.63-4.75,11.77-11.22
			c0.96-5.41-2.58-11.08-8.94-14.26c-3.34-1.67-6.99-2.9-10.63-3.76c-9.94-2.36-20-3.63-30.28-4.02
			c-16.84-0.65-33.64-2.42-50.47-3.43c-9.75-0.59-19.52-0.77-29.29-0.87c-19.85-0.2-39.37,2.8-58.86,6.12
			c-19.05,3.24-38.14,5.87-57.61,4.91c-25.36-1.24-49.13-7.9-70.81-20.89c-12.34-7.4-25.13-13.07-39.01-16.62
			c-4.02-1.03-8.02-2.79-11.53-5.01c-6.28-3.96-5.94-10.2,0.67-13.41c3.12-1.52,6.71-2.73,10.13-2.84c5.94-0.19,12,0.08,17.86,1.04
			c12.28,2.01,24.12,5.74,36,9.49c10.96,3.46,22.3,6.01,33.66,7.87c11.16,1.83,22.16-0.77,32.62-4.75c8.16-3.1,10.2-8.1,7.67-16.44
			c-1.92-6.33-6.12-10.67-11.97-13.56c-9.67-4.77-20.01-7.51-30.6-8.76C1407.33,1692.56,1397.09,1692.5,1386.91,1691.94z
			 M1226.3,1615.2c9.26-0.23,16.2-2.07,21.72-7.58c5.65-5.63,6.64-12.6,2.46-19.39c-1.72-2.8-3.94-5.37-6.27-7.71
			c-3.67-3.69-6.44-7.82-8.09-12.78c-2.62-7.87-6.89-14.85-11.97-21.35c-6.75-8.64-18.23-10.27-27.16-3.89
			c-9.81,7.02-13.63,17.87-9.83,29.99c2.31,7.38,5,14.74,8.5,21.62C1202.29,1607.16,1213.29,1614.17,1226.3,1615.2z M2176,1626.69
			c3.85-0.85,8.03-1.02,11.49-2.69c10.48-5.06,18.64-12.81,23.21-23.64c1.59-3.77,2.23-8.09,2.53-12.22
			c0.41-5.75-2.01-10.44-7.47-12.93c-5.57-2.54-10.23-0.67-14.53,3.27c-2.24,2.05-4.91,3.67-7.5,5.3
			c-8.06,5.06-16.27,9.89-24.22,15.11c-4.75,3.11-7.35,7.73-6.58,13.6c0.78,5.88,4.58,9.6,9.93,11.37
			C2167,1625.25,2171.44,1625.75,2176,1626.69z M1296.58,1609.14c-2.61,0.44-5.34,0.54-7.8,1.38c-7.5,2.56-10.04,10.1-5.46,16.56
			c1.75,2.47,4.16,4.68,6.72,6.31c3.9,2.5,8.06,4.67,12.33,6.48c8.98,3.82,18.08,7.31,26.18,12.92c1.8,1.24,3.87,2.26,5.96,2.9
			c5.36,1.64,10.8,2.6,16.19-0.07c7.92-3.93,8.97-13.76,1.93-19.07c-1.55-1.17-3.46-2.32-5.32-2.55c-4.36-0.53-7.08-3.1-9.85-6.13
			C1326.52,1615.9,1312.13,1611.38,1296.58,1609.14z M1750.18,1764.53c10.22,0.07,17.4-1.14,24.04-4.56
			c3.78-1.95,7.57-4.12,7.13-9.35c-0.34-4.11-3.21-6.72-9.36-7.94c-4.77-0.95-9.63-1.56-14.47-2.07c-4.98-0.53-8.57-2.66-11.32-7.05
			c-1.81-2.9-4.45-5.82-7.43-7.34c-7.43-3.8-15.64-4.92-23.92-3.91c-5.39,0.65-9.71,3.45-11.16,9.08
			c-1.52,5.95,0.46,10.9,5.15,14.81c3.35,2.8,7.4,3.82,11.54,4.8c2.05,0.49,4.51,1.22,5.77,2.7
			C1733.25,1762.08,1742.66,1764.33,1750.18,1764.53z M1199.1,1476.77c0.22,2.56,0.3,5.01,0.66,7.41
			c2.4,15.74,17.46,28.15,32.84,27.04c6.67-0.48,11.84-3.49,14.89-9.59c3.01-6,2.02-11.92-1.96-16.84
			c-5.27-6.53-11.08-12.65-16.97-18.64c-5.09-5.17-12.02-5.54-18.63-5.18c-5.36,0.3-8.64,4.2-9.98,9.35
			C1199.4,1472.44,1199.36,1474.7,1199.1,1476.77z M1170,1390.48c5.79,0.18,10.61-2.66,13.82-7.92c2.59-4.25,2.61-8.86,0.05-13.23
			c-2.36-4.02-6.24-5.7-10.67-5.39c-3.72,0.26-7.47,1.03-11.04,2.11c-5.93,1.79-8.71,6.77-7.69,12.9
			C1155.57,1385.58,1161.85,1390.41,1170,1390.48z M1272.1,1654.79c4.14,0.61,7.94-0.23,9.85-4.55c1.9-4.29,0.7-8.28-2.28-11.68
			c-4.02-4.58-9.29-6.79-15.29-6.79c-4.43,0-8.25,1.62-10.13,6.12c-1.5,3.58-0.37,8.02,3.23,11.36
			C1261.51,1653,1266.26,1655.17,1272.1,1654.79z M1768.63,1733.57c1.01-0.33,3.44-0.8,5.55-1.88c5.54-2.84,8.23-9.2,6.42-14.52
			c-1.81-5.32-7.88-8.54-14.09-7.21c-2.12,0.46-4.26,1.35-6.07,2.54c-4.74,3.09-6.68,8.5-5.07,13.23
			C1757.04,1730.68,1761.53,1733.66,1768.63,1733.57z M1622.01,1730.41c3.44-0.4,6.88-1.16,8.88-4.66c1.7-2.97,0.85-5.96-1.21-7.99
			c-5.63-5.54-12.69-8.37-20.53-7.17c-6.75,1.03-8.52,6.44-4.28,11.79C1609.15,1727.78,1615.23,1729.73,1622.01,1730.41z"/>
		<path class="st3" d="M1242.47,1131.93c-0.66,18.88-4.15,37.51-10.84,55.56c-3.49,9.41-7.69,18.36-13.65,26.51
			c-9.44,12.91-21.84,21.81-36.3,28.3c-18.06,8.11-36.8,9.54-56.06,6.3c-15.76-2.65-31.46-5.55-46.76-10.33
			c-19.57-6.11-37.08-15.74-52.41-29.39c-6.73-6-11.89-13.13-16.16-20.98c-9.76-17.94-17.04-36.73-16.85-57.46
			c0.13-14.24,2.96-28.21,7.54-41.73c2.85-8.39,5.68-16.83,9.28-24.9c9.37-20.99,23.47-37.96,43.63-49.59
			c5.28-3.04,10.85-5.19,16.84-5.93c3-0.37,6.27-0.17,9.18,0.64c5.98,1.68,7.41,5.98,3.96,11.22c-3.78,5.73-7.95,11.21-11.57,17.04
			c-3.03,4.87-6.15,9.86-8.09,15.2c-4.25,11.68-7.52,23.65-7.15,36.31c0.28,9.51-0.5,19.05,1.62,28.5
			c3.03,13.46,9.51,24.8,20.01,33.71c2.84,2.41,6.06,4.77,9.52,5.95c9.64,3.28,19.35,6.67,29.31,8.63
			c12.39,2.44,24.8,1.12,36.51-4.09c6.69-2.97,13.44-5.92,19.73-9.63c4.51-2.66,9.08-5.96,12.25-10.03
			c11.38-14.6,19.13-30.89,20.16-49.76c0.16-2.86-0.18-5.75-0.35-8.63c-0.4-6.81,2.23-12.03,7.33-14.47
			c5.55-2.65,12.43-1.42,17.25,3.17c4.9,4.68,6.83,10.86,8.07,17.2c1.19,6.08,2,12.26,2.55,18.43
			C1241.72,1115.64,1241.99,1123.62,1242.47,1131.93z M1075.49,1212.9c5.78,0.15,9.67-2.15,11.28-6.3
			c1.64-4.24,0.33-8.25-4.15-11.49c-2.32-1.68-4.93-2.97-7.46-4.32c-13.02-6.95-25.04-15.11-33.8-27.34
			c-1.28-1.79-2.79-3.47-4.42-4.95c-2.27-2.08-4.55-4.3-7.2-5.78c-4.17-2.33-7.37-0.85-8.68,3.66c-0.48,1.65-0.79,3.54-0.51,5.21
			c1.72,10.18,4.96,19.74,11.98,27.65c11.01,12.41,25.25,19.18,40.95,23.38C1074.32,1212.84,1075.22,1212.87,1075.49,1212.9z
			 M1120.57,1225.47c1.98-0.23,4-0.27,5.92-0.75c3.24-0.8,5.59-2.83,6.27-6.17c0.64-3.17-0.96-5.68-3.45-7.37
			c-5.75-3.89-12.13-5.43-18.91-3.57c-5.79,1.59-7.38,7.46-3.43,11.99C1110.52,1223.68,1115.15,1225.49,1120.57,1225.47z"/>
		<path class="st3" d="M1593,1417.37c-0.27,19.78-1.23,48.19-6.62,76.16c-2.76,14.34-6.96,28.4-10.7,42.54
			c-1.64,6.21-3.38,12.45-5.8,18.38c-1.73,4.23-4.32,8.25-7.17,11.84c-4.18,5.26-10.16,6.34-16.33,4.56
			c-6.29-1.82-10.32-6.31-10.88-12.93c-0.4-4.81-0.38-9.79,0.41-14.54c2.41-14.51-0.1-28.43-5.33-41.74
			c-5.27-13.39-11.48-26.44-17.77-39.4c-9.43-19.42-22.39-36.73-33.7-55.03c-6.65-10.75-13.16-21.6-19.32-32.64
			c-4.24-7.6-6.88-15.85-7.18-24.7c-0.2-5.66,1-10.96,3.22-16.16c5.29-12.44,15.72-18.1,28.09-17.64
			c11.73,0.43,21.37,6.99,27.11,17.9c2.37,4.51,4.18,9.34,6.74,13.74c2.09,3.6,4.45,7.28,7.51,10.02c6.37,5.68,14.52,2.48,15.7-6.02
			c0.48-3.46,0.36-7.16-0.29-10.59c-2.78-14.64-6.3-29.04-14.3-41.95c-2.98-4.81-0.88-10.59,4.56-12.35
			c4.62-1.49,9.42-2.53,14.38-0.87c10.12,3.39,19.23,8.11,25,17.63c0.8,1.33,1.57,2.72,2.61,3.85
			c9.33,10.11,12.36,22.81,14.87,35.74C1592.03,1364.83,1593.1,1386.73,1593,1417.37z"/>
		<path class="st3" d="M2106.46,1362.06c0.59,21.83-1.39,43.46-6.79,64.61c-5.56,21.78-14.15,42.42-25.6,61.83
			c-2.02,3.42-3.59,7.1-5.3,10.69c-2.32,4.88-5.04,9.38-9.95,12.14c-7.49,4.22-15.86,1.98-19.93-5.58
			c-1.13-2.11-1.86-4.51-2.35-6.87c-2.29-11.19-2.23-22.5-0.71-33.74c1.33-9.85,0.33-19.48-1.65-29.05
			c-2.42-11.7-4.48-23.56-7.99-34.95c-7.14-23.11-16.11-45.49-29.03-66.18c-5.15-8.24-9.96-16.93-13.3-26.01
			c-3.61-9.83-3.54-20.07,4.37-28.63c2.41-2.61,4.69-5.34,7.19-7.85c6.68-6.7,11.89-7.01,19.2-0.92
			c5.64,4.69,10.75,9.91,14.54,16.33c2.02,3.42,4.45,6.63,6.86,9.8c1.51,1.98,3.43,3.71,6.22,2.89c2.67-0.79,3.58-3.14,4.12-5.59
			c1.32-5.99,0.81-12.04-0.89-17.77c-2.93-9.89,1.29-16.47,12.92-13.65c18.8,4.56,33.84,14.4,39.97,34.17
			c5.48,17.69,8.37,35.78,8.09,54.33C2106.42,1355.4,2106.46,1358.73,2106.46,1362.06z"/>
		<path class="st3" d="M1619.3,1387.16c-0.54-9.94-3.3-19.22-7-28.33c-2.41-5.95-4.25-12.12-6.48-18.14
			c-1.13-3.03-0.87-5.75,1.49-7.92c2.33-2.14,5.12-1.47,7.45-0.06c3.95,2.39,8.1,4.69,11.45,7.8c15.75,14.57,26.63,32.4,34.66,52.19
			c4.78,11.78,8.01,23.81,10.04,36.39c2.29,14.19,6.35,28.08,9.11,42.2c2.72,13.9,5.39,27.87,6.99,41.93
			c2.05,18.04-2.64,34.76-12.73,49.87c-3.74,5.6-14.87,8.87-20.95,6.22c-3.81-1.66-5.81-4.67-5.64-8.94
			c0.15-3.76,0.45-7.53,0.39-11.29c-0.04-2.18-0.3-4.49-1.08-6.5c-1.73-4.45-4.92-7.32-9.97-7.55c-5.04-0.23-8.5,2.22-10.59,6.58
			c-1.04,2.18-1.66,4.57-2.34,6.91c-0.69,2.34-1.28,4.71-1.81,7.08c-0.56,2.48-1.95,3.99-4.57,3.96c-3.08-0.04-6.18-0.02-9.22-0.44
			c-4.07-0.55-6.66-2.96-8.1-6.93c-3.27-8.97-4.27-18.18-2.6-27.49c2.43-13.51,4.91-27.05,8.21-40.36
			c5.18-20.9,9.64-41.91,11.78-63.33C1618.88,1409.77,1618.82,1398.44,1619.3,1387.16z"/>
		<path class="st3" d="M2007.78,1485.43c0.33,15.24-0.14,31.2-2.76,47.01c-2.31,13.98-6.97,26.99-16.18,38.13
			c-3.81,4.61-8.3,5.55-13.67,4.01c-4-1.15-5.13-2.53-5.01-6.67c0.07-2.4,0.72-4.79,1.18-7.17c0.47-2.39,1.33-4.74,1.52-7.14
			c0.83-10.37-9.14-17.24-18.31-12.3c-3.13,1.69-5.71,4.83-7.86,7.81c-3.5,4.85-6.48,10.07-9.58,15.2
			c-2.47,4.09-5.96,4.96-10.3,3.72c-4.42-1.26-7.67-2.9-8.85-8.42c-2.4-11.15-1.22-21.52,3.44-31.75
			c8.56-18.78,16.63-37.78,25.59-56.36c8.21-17.02,12.61-34.95,15.3-53.48c2.23-15.36,4.77-30.67,7.26-45.98
			c0.35-2.17,0.89-4.39,1.81-6.36c3.13-6.68,10.81-8.12,15.94-2.84c1.94,2,3.36,4.69,4.46,7.29c6.43,15.21,10.55,30.98,12.19,47.48
			C2006.2,1439.92,2008.06,1462.23,2007.78,1485.43z"/>
		<path class="st3" d="M1933.12,1404.59c0.36,8.45-1.31,16.36-6.52,23.21c-5.85,7.68-14.08,11.5-23.31,12.91
			c-12.68,1.93-23.55-1.53-32.38-11.41c-6.45-7.22-11.68-15.09-15.46-23.91c-3.85-8.96-7.53-18-10.95-27.14
			c-3.69-9.87-5.57-20.01-3.7-30.64c4.11-23.3,19.25-39.48,43.38-41.76c2.86-0.27,5.75-0.53,8.61-0.39
			c16.96,0.87,26.45,11.17,31.85,26.02c3.82,10.49,5.12,21.6,5.55,32.67c0.45,11.53,0.84,23.03,2.61,34.46
			C1933.1,1400.57,1933.02,1402.59,1933.12,1404.59z"/>
		<path class="st4" d="M1732.47,1419.29c-9.07-0.68-19.76-1.87-29.15-8.4c-13.5-9.4-18.98-22.43-17.68-38.42
			c1.28-15.68,6.72-30.17,13.86-44.07c4.08-7.94,9.03-15.26,15.79-21.21c6.4-5.63,13.45-10.19,21.98-11.79
			c15.29-2.87,27.53,2.9,37.07,14.41c9.43,11.38,12.66,24.8,9.83,39.28c-2.34,11.94-5.4,23.73-8.27,35.56
			c-0.67,2.78-1.78,5.47-2.84,8.14C1765.79,1411.06,1753.96,1419.13,1732.47,1419.29z"/>
		<path class="st3" d="M1782.5,1510.62c0.31,12.1-2.62,23.78-4.88,35.52c-1.59,8.25-6.48,14.42-13.75,18.76
			c-14.07,8.4-32.92,9.43-46.61-5.88c-6.97-7.79-12.12-16.54-14.44-26.64c-3.07-13.38-5.73-26.88-8.03-40.41
			c-0.76-4.49-0.4-9.34,0.36-13.88c2.9-17.31,15.93-27.5,34.23-30.69c17.63-3.07,31.68,3.82,41.8,20.71
			C1779.45,1481.91,1782.61,1494.62,1782.5,1510.62z"/>
		<path class="st3" d="M1413.06,1485.97c0.13-13.62,2.13-26.78,7.47-39.54c6.65-15.88,28.28-22.27,42.8-6.37
			c3.85,4.21,7.37,9.01,9.82,14.12c3.13,6.54,5.86,13.52,7.21,20.6c1.58,8.31,3.49,16.45,6.39,24.36c3,8.17,2.81,16.7,1.89,25.01
			c-1.05,9.44-8.42,14.12-16.45,17.53c-1.99,0.85-4.33,1.32-6.49,1.25c-17.78-0.59-32.93-6.82-43.64-21.55
			c-5.89-8.09-8.48-17.48-8.98-27.44C1412.95,1491.3,1413.06,1488.63,1413.06,1485.97z"/>
		<path class="st3" d="M2165.09,1477.93c-0.81,13.53-2.63,30.99-11.12,46.8c-5.58,10.4-13.34,18.71-25.62,21.64
			c-13.57,3.24-27.75-4.63-31.14-18.15c-1.16-4.64-1.77-9.78-1.09-14.46c3.21-21.98,10.26-42.66,22.92-61.11
			c2.99-4.35,6.48-8.54,10.43-12c11.76-10.3,25.82-6.73,31.68,7.75C2164.48,1456.57,2165.05,1465.19,2165.09,1477.93z"/>
		<path class="st3" d="M1818.34,1532.16c0.46-15.17,2.24-30.06,9-43.95c2.87-5.9,6.7-10.97,12.22-14.61
			c12.74-8.41,27.08-6.38,37.01,5.23c6.31,7.37,9.2,16.13,9.85,25.61c0.88,12.75-1.01,25.22-4.78,37.39
			c-2.53,8.16-6.82,15.34-12.51,21.74c-13.94,15.68-37.02,10.21-45.58-5.66C1819.2,1549.84,1817.98,1541.17,1818.34,1532.16z"/>
		<path class="st3" d="M1635.85,774.12c-0.86,9.71-1.58,20.78-2.91,31.78c-0.76,6.29-0.14,12.39,0.92,18.48
			c2.02,11.63,5.55,22.85,10.45,33.58c8.35,18.32,13.95,37.42,16.09,57.4c2.29,21.39-3.67,40.44-18.4,56.35
			c-9.03,9.76-19.46,17.6-32.77,20.57c-4.52,1.01-9.2,1.37-13.82,1.81c-1.73,0.17-3.55-0.11-5.28-0.43c-4.67-0.85-8.46-2.95-9.53-8
			c-0.96-4.51,1.6-7.57,4.77-10.23c1.02-0.85,2.1-1.65,3.24-2.33c15.3-9.21,22.09-23.41,24.41-40.52
			c2.21-16.31-1.22-31.68-6.24-47.01c-3.65-11.15-7.26-22.39-9.64-33.84c-3.69-17.7-4.21-35.63-0.22-53.46
			c1.38-6.14,1.57-12.25,0.11-18.44c-2.76-11.64-5.19-23.36-8.06-34.98c-1.68-6.79-4.82-12.85-10.72-17.14
			c-2.27-1.65-3.72-3.88-2.91-6.88c0.8-2.95,3.11-4.14,5.85-4.76c19.96-4.51,35.12-0.04,46.11,19.5
			C1633.78,747.09,1635.64,759.74,1635.85,774.12z"/>
		<path class="st3" d="M1945.23,775.22c0.55,10.21-1.95,20.39-4.83,30.39c-2.51,8.72-5.78,17.25-9.1,25.71
			c-6.61,16.82-8.5,33.91-3.57,51.47c2.46,8.75,5.34,17.38,7.72,26.15c2.99,11.03,4.12,22.22,1.78,33.58
			c-1.2,5.82-3.53,11.15-7.95,15.05c-5.3,4.68-10.91,9.08-16.76,13.05c-4.9,3.32-9.99,2.82-13.59-0.32
			c-3.6-3.14-4.48-7.93-2.43-13.49c1.45-3.95,3.22-7.8,4.39-11.82c2.31-7.94,1.14-15.87-0.95-23.65
			c-2.98-11.14-6.08-22.25-9.37-33.29c-6.42-21.53-5.19-43.01,0.45-64.38c3.45-13.07,7.73-25.91,11.31-38.95
			c1.99-7.25,3.72-14.62,4.82-22.04c1.23-8.29-1-16.31-3.55-24.16c-0.68-2.11-1.68-4.12-2.27-6.25c-1.79-6.42,1.07-10.91,7.72-12.07
			c4.05-0.71,7.94-0.05,11.65,1.81c7.45,3.73,12.57,9.69,16.43,16.9C1943.13,750.14,1945.43,762.21,1945.23,775.22z"/>
		<path class="st3" d="M1862.74,1114.77c-1.23-4.45-2.4-8.92-3.72-13.34c-0.88-2.96-2.32-5.78-2.94-8.78
			c-1.57-7.64,2.41-13.47,9.85-15.56c6.85-1.92,12.71-0.33,17.76,4.41c5.89,5.53,10.64,11.78,12.42,19.95
			c1.73,7.95,0.17,15.11-5.25,21.02c-5.83,6.35-12.14,12.27-18.35,18.26c-2.66,2.57-5.98,3.71-9.75,3.22
			c-5.88-0.76-9.48-5.83-7.71-11.51c0.83-2.69,2.46-5.17,3.93-7.62C1861.8,1120.11,1862.26,1118.92,1862.74,1114.77z"/>
	</g>
</g>
</svg>
